# Blender v2.82 (sub 7) OBJ File: 'Track.blend'
# www.blender.org
mtllib CurvedStreet.mtl
o TrackC_Plane.003
v 5.297511 -0.818825 -7.710392
v 5.297512 -0.818825 -2.919058
v 3.984998 0.000000 -7.710392
v 3.984999 0.000000 -2.919058
v 4.347165 0.000000 -2.919058
v 4.347164 0.000000 -7.710392
v 3.744871 0.000000 -7.710392
v 3.744872 0.000000 -2.919058
v -0.000002 0.000000 -7.710392
v 0.000002 0.000000 -2.919057
v -5.297515 -0.818825 -7.710391
v -5.297508 -0.818825 -2.919057
v -3.985003 0.000000 -7.710391
v -3.984996 0.000000 -2.919057
v -4.347161 0.000000 -2.919057
v -4.347168 0.000000 -7.710391
v -3.744875 0.000000 -7.710391
v -3.744869 0.000000 -2.919057
v 5.297512 -0.818825 -2.919058
v 3.984999 0.000000 -2.919058
v 4.347165 0.000000 -2.919058
v 3.744872 0.000000 -2.919058
v 0.000002 0.000000 -2.919057
v -5.297508 -0.818825 -2.919057
v -3.984996 0.000000 -2.919057
v -4.347161 0.000000 -2.919057
v -3.744869 0.000000 -2.919057
v 5.297512 -0.818825 -2.919058
v 3.984999 0.000000 -2.919058
v 4.347165 0.000000 -2.919058
v 3.744872 0.000000 -2.919058
v 0.000002 0.000000 -2.919057
v -5.297508 -0.818825 -2.919057
v -3.984996 0.000000 -2.919057
v -4.347161 0.000000 -2.919057
v -3.744869 0.000000 -2.919057
v 5.297512 -0.818825 -2.919058
v 3.984999 0.000000 -2.919058
v 4.347165 0.000000 -2.919058
v 3.744872 0.000000 -2.919058
v 0.000002 0.000000 -2.919057
v -5.297508 -0.818825 -2.919057
v -3.984996 0.000000 -2.919057
v -4.347161 0.000000 -2.919057
v -3.744869 0.000000 -2.919057
v 5.297512 -0.818825 -2.919058
v 3.984999 0.000000 -2.919058
v 4.347165 0.000000 -2.919058
v 3.744872 0.000000 -2.919058
v 0.000002 0.000000 -2.919057
v -5.297508 -0.818825 -2.919057
v -3.984996 0.000000 -2.919057
v -4.347161 0.000000 -2.919057
v -3.744869 0.000000 -2.919057
v 5.297512 -0.818825 -2.919058
v 3.984999 0.000000 -2.919058
v 4.347165 0.000000 -2.919058
v 3.744872 0.000000 -2.919058
v 0.000002 0.000000 -2.919057
v -5.297508 -0.818825 -2.919057
v -3.984996 0.000000 -2.919057
v -4.347161 0.000000 -2.919057
v -3.744869 0.000000 -2.919057
v 5.297512 -0.818825 -2.919058
v 3.984999 0.000000 -2.919058
v 4.347165 0.000000 -2.919058
v 3.744872 0.000000 -2.919058
v 0.000002 0.000000 -2.919057
v -5.297508 -0.818825 -2.919057
v -3.984996 0.000000 -2.919057
v -4.347161 0.000000 -2.919057
v -3.744869 0.000000 -2.919057
v 5.297512 -0.818825 -2.919058
v 3.984999 0.000000 -2.919058
v 4.347165 0.000000 -2.919058
v 3.744872 0.000000 -2.919058
v 0.000002 0.000000 -2.919057
v -5.297508 -0.818825 -2.919057
v -3.984996 0.000000 -2.919057
v -4.347161 0.000000 -2.919057
v -3.744869 0.000000 -2.919057
v 5.297512 -0.818825 -2.919058
v 3.984999 0.000000 -2.919058
v 4.347165 0.000000 -2.919058
v 3.744872 0.000000 -2.919058
v 0.000002 0.000000 -2.919057
v -5.297508 -0.818825 -2.919057
v -3.984996 0.000000 -2.919057
v -4.347161 0.000000 -2.919057
v -3.744869 0.000000 -2.919057
v 5.297512 -0.818825 -2.919058
v 3.984999 0.000000 -2.919058
v 4.347165 0.000000 -2.919058
v 3.744872 0.000000 -2.919058
v 0.000002 0.000000 -2.919057
v -5.297508 -0.818825 -2.919057
v -3.984996 0.000000 -2.919057
v -4.347161 0.000000 -2.919057
v -3.744869 0.000000 -2.919057
v 5.071157 -0.818825 -0.637094
v 3.778584 0.000000 -0.865009
v 4.135248 0.000000 -0.802119
v 3.542106 0.000000 -0.906706
v -0.145872 0.000000 -1.556996
v -5.362900 -0.818825 -2.476898
v -4.070328 0.000000 -2.248983
v -4.426992 0.000000 -2.311873
v -3.833849 0.000000 -2.207286
v 4.451982 -0.818825 1.570897
v 3.218624 0.000000 1.121991
v 3.558948 0.000000 1.245860
v 2.992978 0.000000 1.039863
v -0.526049 0.000000 -0.240958
v -5.504079 -0.818825 -2.052813
v -4.270721 0.000000 -1.603907
v -4.611046 0.000000 -1.727776
v -4.045075 0.000000 -1.521779
v 3.458800 -0.818825 3.637823
v 2.322131 0.000000 2.981567
v 2.635776 0.000000 3.162651
v 2.114175 0.000000 2.861504
v -1.128977 0.000000 0.989069
v -5.716756 -0.818825 -1.659685
v -4.580086 0.000000 -1.003430
v -4.893732 0.000000 -1.184513
v -4.372130 0.000000 -0.883365
v 2.121789 -0.818825 5.500884
v 1.116347 0.000000 4.657218
v 1.393781 0.000000 4.890014
v 0.932399 0.000000 4.502867
v -1.936338 0.000000 2.095712
v -5.994467 -0.818825 -1.309460
v -4.989024 0.000000 -0.465795
v -5.266459 0.000000 -0.698592
v -4.805075 0.000000 -0.311443
v 0.481573 -0.818825 7.103471
v -0.362093 0.000000 6.098028
v -0.129298 0.000000 6.375464
v -0.516444 0.000000 5.914082
v -2.923600 0.000000 3.045345
v -6.328774 -0.818825 -1.012781
v -5.485107 0.000000 -0.007340
v -5.717903 0.000000 -0.284776
v -5.330757 0.000000 0.176610
v -1.412010 -0.818825 8.396891
v -2.068267 0.000000 7.260222
v -1.887184 0.000000 7.573867
v -2.188330 0.000000 7.052267
v -4.060765 0.000000 3.809115
v -6.709521 -0.818825 -0.778660
v -6.053265 0.000000 0.358007
v -6.234347 0.000000 0.044361
v -5.933200 0.000000 0.565965
v -3.501426 -0.818825 9.341843
v -3.950332 0.000000 8.108485
v -3.826464 0.000000 8.448812
v -4.032461 0.000000 7.882841
v -5.313282 0.000000 4.363816
v -7.125138 -0.818825 -0.614213
v -6.676232 0.000000 0.619144
v -6.800100 0.000000 0.278818
v -6.594103 0.000000 0.844791
v -5.723189 -0.818825 9.909616
v -5.951105 0.000000 8.617044
v -5.888216 0.000000 8.973709
v -5.992802 0.000000 8.380566
v -6.643093 0.000000 4.692591
v -7.562997 -0.818825 -0.524436
v -7.335081 0.000000 0.768136
v -7.397970 0.000000 0.411471
v -7.293383 0.000000 1.004616
v -8.009789 -0.818825 10.082959
v -8.009790 0.000000 8.770449
v -8.009790 0.000000 9.132615
v -8.009790 0.000000 8.530321
v -8.009791 0.000000 4.785453
v -8.009793 -0.818825 -0.512056
v -8.009792 0.000000 0.800457
v -8.009791 0.000000 0.438289
v -8.009791 0.000000 1.040585
vt 0.000000 0.750000
vt 1.000000 0.750000
vt 1.000000 1.000000
vt 0.000000 1.000000
vt 0.000000 0.500000
vt 1.000000 0.500000
vt 0.000000 0.000000
vt 1.000000 0.000000
vt 1.000000 0.250000
vt 0.000000 0.250000
vt 0.000000 0.750000
vt 0.000000 1.000000
vt 1.000000 1.000000
vt 1.000000 0.750000
vt 0.000000 0.500000
vt 1.000000 0.500000
vt 0.000000 0.250000
vt 1.000000 0.250000
vt 1.000000 0.500000
vt 1.000000 0.750000
vt 1.000000 1.000000
vt 1.000000 0.750000
vt 1.000000 0.250000
vt 1.000000 0.000000
vt 1.000000 0.500000
vt 1.000000 1.000000
vt 1.000000 0.250000
vt 1.000000 1.000000
vt 1.000000 0.750000
vt 1.000000 0.500000
vt 1.000000 0.750000
vt 1.000000 1.000000
vt 1.000000 0.250000
vt 1.000000 0.000000
vt 1.000000 0.250000
vt 1.000000 0.500000
vt 1.000000 0.250000
vt 1.000000 0.000000
vt 1.000000 0.250000
vt 1.000000 0.750000
vt 1.000000 0.500000
vt 1.000000 1.000000
vt 1.000000 0.500000
vt 1.000000 0.750000
vt 1.000000 1.000000
vt 1.000000 0.000000
vt 1.000000 0.250000
vt 1.000000 0.750000
vt 1.000000 0.500000
vt 1.000000 1.000000
vt 1.000000 0.500000
vt 1.000000 0.750000
vt 1.000000 1.000000
vt 1.000000 0.250000
vt 1.000000 0.750000
vt 1.000000 0.500000
vt 1.000000 1.000000
vt 1.000000 0.500000
vt 1.000000 0.750000
vt 1.000000 1.000000
vt 1.000000 0.250000
vt 1.000000 0.000000
vt 1.000000 0.250000
vt 1.000000 0.500000
vt 1.000000 0.750000
vt 1.000000 1.000000
vt 1.000000 0.250000
vt 1.000000 0.000000
vt 1.000000 0.250000
vt 1.000000 0.750000
vt 1.000000 0.500000
vt 1.000000 1.000000
vt 1.000000 0.250000
vt 1.000000 0.000000
vt 1.000000 0.250000
vt 1.000000 0.750000
vt 1.000000 0.500000
vt 1.000000 1.000000
vt 1.000000 0.500000
vt 1.000000 0.750000
vt 1.000000 1.000000
vt 1.000000 0.750000
vt 1.000000 0.500000
vt 1.000000 1.000000
vt 1.000000 0.500000
vt 1.000000 0.750000
vt 1.000000 1.000000
vt 1.000000 0.250000
vt 1.000000 0.000000
vt 1.000000 0.250000
vt 1.000000 0.750000
vt 1.000000 0.500000
vt 1.000000 1.000000
vt 1.000000 0.500000
vt 1.000000 0.750000
vt 1.000000 1.000000
vt 1.000000 0.250000
vt 1.000000 0.000000
vt 1.000000 0.250000
vt 1.000000 0.750000
vt 1.000000 0.500000
vt 1.000000 1.000000
vt 1.000000 0.500000
vt 1.000000 0.750000
vt 1.000000 1.000000
vt 1.000000 0.250000
vt 1.000000 0.000000
vt 1.000000 0.250000
vt 1.000000 0.500000
vt 1.000000 0.750000
vt 1.000000 1.000000
vt 1.000000 0.250000
vt 1.000000 0.000000
vt 1.000000 0.250000
vt 1.000000 0.750000
vt 1.000000 0.500000
vt 1.000000 1.000000
vt 1.000000 0.250000
vt 1.000000 0.000000
vt 1.000000 0.250000
vt 1.000000 0.750000
vt 1.000000 0.500000
vt 1.000000 1.000000
vt 1.000000 0.500000
vt 1.000000 0.750000
vt 1.000000 1.000000
vt 1.000000 0.750000
vt 1.000000 0.500000
vt 1.000000 1.000000
vt 1.000000 0.500000
vt 1.000000 0.750000
vt 1.000000 1.000000
vt 1.000000 0.250000
vt 1.000000 0.000000
vt 1.000000 0.250000
vt 1.000000 0.750000
vt 1.000000 0.500000
vt 1.000000 1.000000
vt 1.000000 0.500000
vt 1.000000 0.750000
vt 1.000000 1.000000
vt 1.000000 0.250000
vt 1.000000 0.000000
vt 1.000000 0.250000
vt 1.000000 0.750000
vt 1.000000 1.000000
vt 1.000000 0.250000
vt 1.000000 0.000000
vt 1.000000 0.250000
vt 1.000000 0.750000
vt 1.000000 0.500000
vt 1.000000 1.000000
vt 1.000000 0.500000
vt 1.000000 0.000000
vt 1.000000 0.250000
vt 1.000000 0.750000
vt 1.000000 0.500000
vt 1.000000 1.000000
vt 1.000000 0.500000
vt 1.000000 0.750000
vt 1.000000 1.000000
vt 1.000000 0.250000
vt 1.000000 0.750000
vt 1.000000 0.500000
vt 1.000000 1.000000
vt 1.000000 0.500000
vt 1.000000 0.750000
vt 1.000000 1.000000
vt 1.000000 0.250000
vt 1.000000 0.000000
vt 1.000000 0.250000
vt 1.000000 1.000000
vt 1.000000 0.750000
vt 1.000000 0.500000
vt 1.000000 0.750000
vt 1.000000 1.000000
vt 1.000000 0.250000
vt 1.000000 0.000000
vt 1.000000 0.250000
vt 1.000000 0.500000
vn 0.6527 0.7576 -0.0000
vn 0.0000 1.0000 0.0000
vn -0.6527 0.7576 0.0000
vn 0.0000 0.0000 1.0000
vn -0.6485 0.7559 -0.0897
vn 0.6510 0.7563 0.0649
vn 0.6298 0.7563 0.1769
vn -0.6230 0.7559 -0.2010
vn -0.5787 0.7559 -0.3061
vn 0.5895 0.7563 0.2836
vn -0.5167 0.7559 -0.4019
vn 0.5313 0.7563 0.3817
vn -0.4391 0.7559 -0.4856
vn 0.4570 0.7563 0.4681
vn 0.3688 0.7563 0.5404
vn -0.3481 0.7559 -0.5544
vn -0.2465 0.7559 -0.6065
vn 0.2693 0.7563 0.5962
vn -0.1375 0.7559 -0.6400
vn 0.1617 0.7563 0.6339
vn -0.0242 0.7559 -0.6542
vn 0.0492 0.7563 0.6523
usemtl TrackGround
s off
f 6/1/1 5/2/1 2/3/1 1/4/1
f 3/5/2 4/6/2 5/2/2 6/1/2
f 9/7/2 10/8/2 8/9/2 7/10/2
f 16/11/3 11/12/3 12/13/3 15/14/3
f 13/15/2 16/11/2 15/14/2 14/16/2
f 9/7/2 17/17/2 18/18/2 10/8/2
f 5/2/4 4/6/4 20/19/4 21/20/4
f 15/14/4 12/13/4 24/21/4 26/22/4
f 10/8/4 18/18/4 27/23/4 23/24/4
f 14/16/4 15/14/4 26/22/4 25/25/4
f 2/3/4 5/2/4 21/20/4 19/26/4
f 8/9/4 10/8/4 23/24/4 22/27/4
f 26/22/4 24/21/4 33/28/4 35/29/4
f 21/20/4 20/19/4 29/30/4 30/31/4
f 19/26/4 21/20/4 30/31/4 28/32/4
f 23/24/4 27/23/4 36/33/4 32/34/4
f 22/27/4 23/24/4 32/34/4 31/35/4
f 25/25/4 26/22/4 35/29/4 34/36/4
f 32/34/4 36/33/4 45/37/4 41/38/4
f 31/35/4 32/34/4 41/38/4 40/39/4
f 34/36/4 35/29/4 44/40/4 43/41/4
f 35/29/4 33/28/4 42/42/4 44/40/4
f 30/31/4 29/30/4 38/43/4 39/44/4
f 28/32/4 30/31/4 39/44/4 37/45/4
f 40/39/4 41/38/4 50/46/4 49/47/4
f 43/41/4 44/40/4 53/48/4 52/49/4
f 44/40/4 42/42/4 51/50/4 53/48/4
f 39/44/4 38/43/4 47/51/4 48/52/4
f 37/45/4 39/44/4 48/52/4 46/53/4
f 41/38/4 45/37/4 54/54/4 50/46/4
f 52/49/4 53/48/4 62/55/4 61/56/4
f 53/48/4 51/50/4 60/57/4 62/55/4
f 48/52/4 47/51/4 56/58/4 57/59/4
f 46/53/4 48/52/4 57/59/4 55/60/4
f 50/46/4 54/54/4 63/61/4 59/62/4
f 49/47/4 50/46/4 59/62/4 58/63/4
f 57/59/4 56/58/4 65/64/4 66/65/4
f 55/60/4 57/59/4 66/65/4 64/66/4
f 59/62/4 63/61/4 72/67/4 68/68/4
f 58/63/4 59/62/4 68/68/4 67/69/4
f 61/56/4 62/55/4 71/70/4 70/71/4
f 62/55/4 60/57/4 69/72/4 71/70/4
f 68/68/4 72/67/4 81/73/4 77/74/4
f 67/69/4 68/68/4 77/74/4 76/75/4
f 70/71/4 71/70/4 80/76/4 79/77/4
f 71/70/4 69/72/4 78/78/4 80/76/4
f 66/65/4 65/64/4 74/79/4 75/80/4
f 64/66/4 66/65/4 75/80/4 73/81/4
f 79/77/4 80/76/4 89/82/4 88/83/4
f 80/76/4 78/78/4 87/84/4 89/82/4
f 75/80/4 74/79/4 83/85/4 84/86/4
f 73/81/4 75/80/4 84/86/4 82/87/4
f 77/74/4 81/73/4 90/88/4 86/89/4
f 76/75/4 77/74/4 86/89/4 85/90/4
f 88/83/4 89/82/4 98/91/4 97/92/4
f 89/82/4 87/84/4 96/93/4 98/91/4
f 84/86/4 83/85/4 92/94/4 93/95/4
f 82/87/4 84/86/4 93/95/4 91/96/4
f 86/89/4 90/88/4 99/97/4 95/98/4
f 85/90/4 86/89/4 95/98/4 94/99/4
f 97/92/2 98/91/2 107/100/2 106/101/2
f 98/91/5 96/93/5 105/102/5 107/100/5
f 93/95/2 92/94/2 101/103/2 102/104/2
f 91/96/6 93/95/6 102/104/6 100/105/6
f 95/98/2 99/97/2 108/106/2 104/107/2
f 94/99/2 95/98/2 104/107/2 103/108/2
f 102/104/2 101/103/2 110/109/2 111/110/2
f 100/105/7 102/104/7 111/110/7 109/111/7
f 104/107/2 108/106/2 117/112/2 113/113/2
f 103/108/2 104/107/2 113/113/2 112/114/2
f 106/101/2 107/100/2 116/115/2 115/116/2
f 107/100/8 105/102/8 114/117/8 116/115/8
f 113/113/2 117/112/2 126/118/2 122/119/2
f 112/114/2 113/113/2 122/119/2 121/120/2
f 115/116/2 116/115/2 125/121/2 124/122/2
f 116/115/9 114/117/9 123/123/9 125/121/9
f 111/110/2 110/109/2 119/124/2 120/125/2
f 109/111/10 111/110/10 120/125/10 118/126/10
f 124/122/2 125/121/2 134/127/2 133/128/2
f 125/121/11 123/123/11 132/129/11 134/127/11
f 120/125/2 119/124/2 128/130/2 129/131/2
f 118/126/12 120/125/12 129/131/12 127/132/12
f 122/119/2 126/118/2 135/133/2 131/134/2
f 121/120/2 122/119/2 131/134/2 130/135/2
f 133/128/2 134/127/2 143/136/2 142/137/2
f 134/127/13 132/129/13 141/138/13 143/136/13
f 129/131/2 128/130/2 137/139/2 138/140/2
f 127/132/14 129/131/14 138/140/14 136/141/14
f 131/134/2 135/133/2 144/142/2 140/143/2
f 130/135/2 131/134/2 140/143/2 139/144/2
f 136/141/15 138/140/15 147/145/15 145/146/15
f 140/143/2 144/142/2 153/147/2 149/148/2
f 139/144/2 140/143/2 149/148/2 148/149/2
f 142/137/2 143/136/2 152/150/2 151/151/2
f 143/136/16 141/138/16 150/152/16 152/150/16
f 138/140/2 137/139/2 146/153/2 147/145/2
f 148/149/2 149/148/2 158/154/2 157/155/2
f 151/151/2 152/150/2 161/156/2 160/157/2
f 152/150/17 150/152/17 159/158/17 161/156/17
f 147/145/2 146/153/2 155/159/2 156/160/2
f 145/146/18 147/145/18 156/160/18 154/161/18
f 149/148/2 153/147/2 162/162/2 158/154/2
f 160/157/2 161/156/2 170/163/2 169/164/2
f 161/156/19 159/158/19 168/165/19 170/163/19
f 156/160/2 155/159/2 164/166/2 165/167/2
f 154/161/20 156/160/20 165/167/20 163/168/20
f 158/154/2 162/162/2 171/169/2 167/170/2
f 157/155/2 158/154/2 167/170/2 166/171/2
f 170/163/21 168/165/21 177/172/21 179/173/21
f 165/167/2 164/166/2 173/174/2 174/175/2
f 163/168/22 165/167/22 174/175/22 172/176/22
f 167/170/2 171/169/2 180/177/2 176/178/2
f 166/171/2 167/170/2 176/178/2 175/179/2
f 169/164/2 170/163/2 179/173/2 178/180/2
usemtl TrackWhileLine
f 7/10/2 8/9/2 4/6/2 3/5/2
f 17/17/2 13/15/2 14/16/2 18/18/2
f 4/6/4 8/9/4 22/27/4 20/19/4
f 18/18/4 14/16/4 25/25/4 27/23/4
f 27/23/4 25/25/4 34/36/4 36/33/4
f 20/19/4 22/27/4 31/35/4 29/30/4
f 36/33/4 34/36/4 43/41/4 45/37/4
f 29/30/4 31/35/4 40/39/4 38/43/4
f 38/43/4 40/39/4 49/47/4 47/51/4
f 45/37/4 43/41/4 52/49/4 54/54/4
f 54/54/4 52/49/4 61/56/4 63/61/4
f 47/51/4 49/47/4 58/63/4 56/58/4
f 63/61/4 61/56/4 70/71/4 72/67/4
f 56/58/4 58/63/4 67/69/4 65/64/4
f 72/67/4 70/71/4 79/77/4 81/73/4
f 65/64/4 67/69/4 76/75/4 74/79/4
f 74/79/4 76/75/4 85/90/4 83/85/4
f 81/73/4 79/77/4 88/83/4 90/88/4
f 90/88/4 88/83/4 97/92/4 99/97/4
f 83/85/4 85/90/4 94/99/4 92/94/4
f 99/97/2 97/92/2 106/101/2 108/106/2
f 92/94/2 94/99/2 103/108/2 101/103/2
f 108/106/2 106/101/2 115/116/2 117/112/2
f 101/103/2 103/108/2 112/114/2 110/109/2
f 117/112/2 115/116/2 124/122/2 126/118/2
f 110/109/2 112/114/2 121/120/2 119/124/2
f 119/124/2 121/120/2 130/135/2 128/130/2
f 126/118/2 124/122/2 133/128/2 135/133/2
f 135/133/2 133/128/2 142/137/2 144/142/2
f 128/130/2 130/135/2 139/144/2 137/139/2
f 144/142/2 142/137/2 151/151/2 153/147/2
f 137/139/2 139/144/2 148/149/2 146/153/2
f 153/147/2 151/151/2 160/157/2 162/162/2
f 146/153/2 148/149/2 157/155/2 155/159/2
f 162/162/2 160/157/2 169/164/2 171/169/2
f 155/159/2 157/155/2 166/171/2 164/166/2
f 171/169/2 169/164/2 178/180/2 180/177/2
f 164/166/2 166/171/2 175/179/2 173/174/2
