# Blender v2.82 (sub 7) OBJ File: 'Track.blend'
# www.blender.org
mtllib StreetIntersection.mtl
o TrackIntersection_Plane.007
v 5.297510 -0.818825 -15.892500
v 5.297513 -0.818825 15.892500
v 3.984997 0.000000 -15.892500
v 3.985000 0.000000 15.892500
v 4.347166 0.000000 15.892500
v 4.347163 0.000000 -15.892500
v 3.744870 0.000000 -15.892500
v 3.744873 0.000000 15.892500
v 5.297512 -0.818825 5.297499
v 5.297511 -0.818825 -5.297500
v 3.984999 0.000000 4.297500
v 3.984998 0.000000 -4.297501
v 4.347165 0.000000 4.297500
v 4.347164 0.000000 -4.297501
v 3.744872 0.000000 4.297500
v 3.744871 0.000000 -4.297501
v 13.637693 -0.818825 5.297499
v 13.637693 -0.818825 -5.297500
v 13.347164 0.000000 4.297500
v 13.347164 0.000000 -4.297501
v 3.984999 0.000000 3.998122
v 3.984998 0.000000 3.723361
v 3.984998 0.000000 -3.690538
v 3.984998 0.000000 -3.973504
v 4.347165 0.000000 3.998122
v 4.347165 0.000000 3.723361
v 4.347164 0.000000 -3.690538
v 4.347164 0.000000 -3.973504
v 3.744872 0.000000 3.998122
v 3.744871 0.000000 3.723361
v 3.744872 0.000000 -3.690538
v 3.744871 0.000000 -3.973504
v 13.347164 0.000000 3.998122
v 13.347164 0.000000 3.723361
v 13.347164 0.000000 -3.690538
v 13.347164 0.000000 -3.973505
v -0.000001 0.000000 -15.892500
v 0.000001 0.000000 15.892500
v -5.297513 -0.818825 -15.892500
v -5.297510 -0.818825 15.892500
v -3.985000 0.000000 -15.892500
v -3.984997 0.000000 15.892500
v -4.347163 0.000000 15.892500
v -4.347166 0.000000 -15.892500
v -3.744873 0.000000 -15.892500
v -3.744870 0.000000 15.892500
v -0.000000 0.000000 -4.297500
v 0.000000 0.000000 4.297500
v -5.297511 -0.818825 5.297500
v -5.297512 -0.818825 -5.297499
v -3.984998 0.000000 4.297501
v -3.984999 0.000000 -4.297500
v -4.347164 0.000000 4.297501
v -4.347165 0.000000 -4.297500
v -3.744871 0.000000 4.297501
v -3.744872 0.000000 -4.297500
v -13.637693 -0.818825 5.297501
v -13.637693 -0.818825 -5.297498
v -13.347164 0.000000 4.297502
v -13.347164 0.000000 -4.297499
v -0.000000 0.000000 -3.973504
v -0.000000 0.000000 -3.690538
v 0.000000 0.000000 3.723361
v 0.000000 0.000000 3.998122
v -3.984998 0.000000 3.998122
v -3.984998 0.000000 3.723362
v -3.984999 0.000000 -3.690537
v -3.984999 0.000000 -3.973504
v -4.347164 0.000000 3.998122
v -4.347164 0.000000 3.723362
v -4.347165 0.000000 -3.690537
v -4.347165 0.000000 -3.973504
v -3.744871 0.000000 3.998122
v -3.744871 0.000000 3.723362
v -3.744872 0.000000 -3.690537
v -3.744872 0.000000 -3.973504
v -13.347164 0.000000 3.998123
v -13.347164 0.000000 3.723363
v -13.347164 0.000000 -3.690536
v -13.347164 0.000000 -3.973503
vt 0.666667 0.750000
vt 1.000000 0.750000
vt 1.000000 1.000000
vt 0.666667 1.000000
vt 0.666667 0.500000
vt 1.000000 0.500000
vt 0.666667 0.000000
vt 1.000000 0.000000
vt 1.000000 0.250000
vt 0.666667 0.250000
vt 0.000000 0.000000
vt 0.333333 0.000000
vt 0.333333 0.250000
vt 0.000000 0.250000
vt 0.600000 0.000000
vt 0.600000 0.250000
vt 0.000000 0.500000
vt 0.333333 0.500000
vt 0.333333 0.750000
vt 0.000000 0.750000
vt 0.600000 0.500000
vt 0.600000 0.750000
vt 0.333333 1.000000
vt 0.000000 1.000000
vt 0.666667 1.000000
vt 0.666667 0.750000
vt 0.600000 0.750000
vt 0.333333 0.750000
vt 0.333333 1.000000
vt 0.400000 0.750000
vt 0.400000 0.750000
vt 0.466667 0.750000
vt 0.533333 0.750000
vt 0.533333 0.750000
vt 0.466667 0.750000
vt 0.466667 0.250000
vt 0.533333 0.250000
vt 0.533333 0.500000
vt 0.466667 0.500000
vt 0.400000 0.500000
vt 0.400000 0.000000
vt 0.400000 0.250000
vt 0.466667 0.000000
vt 0.533333 0.000000
vt 0.666667 0.750000
vt 0.666667 1.000000
vt 1.000000 1.000000
vt 1.000000 0.750000
vt 0.666667 0.500000
vt 1.000000 0.500000
vt 0.666667 0.250000
vt 1.000000 0.250000
vt 0.000000 0.250000
vt 0.333333 0.250000
vt 0.600000 0.250000
vt 0.000000 0.500000
vt 0.000000 0.750000
vt 0.333333 0.750000
vt 0.333333 0.500000
vt 0.600000 0.500000
vt 0.600000 0.750000
vt 0.000000 1.000000
vt 0.333333 1.000000
vt 0.666667 0.750000
vt 0.666667 1.000000
vt 0.600000 0.750000
vt 0.333333 1.000000
vt 0.333333 0.750000
vt 0.400000 0.750000
vt 0.400000 0.750000
vt 0.466667 0.750000
vt 0.466667 0.750000
vt 0.533333 0.750000
vt 0.533333 0.750000
vt 0.466667 0.250000
vt 0.466667 0.500000
vt 0.533333 0.500000
vt 0.533333 0.250000
vt 0.400000 0.500000
vt 0.400000 0.250000
vn 0.6527 0.7576 -0.0000
vn 0.0000 1.0000 0.0000
vn 0.0000 0.7737 0.6335
vn 0.0000 0.7737 -0.6335
vn -0.6527 0.7576 0.0000
usemtl TrackGround
s off
f 13/1/1 5/2/1 2/3/1 9/4/1
f 11/5/2 4/6/2 5/2/2 13/1/2
f 48/7/2 38/8/2 8/9/2 15/10/2
f 37/11/2 47/12/2 16/13/2 7/14/2
f 64/15/2 48/7/2 15/10/2 29/16/2
f 3/17/2 12/18/2 14/19/2 6/20/2
f 21/21/2 11/5/2 13/1/2 25/22/2
f 6/20/1 14/19/1 10/23/1 1/24/1
f 13/1/3 9/4/3 17/25/3 19/26/3
f 25/22/2 13/1/2 19/26/2 33/27/2
f 10/23/4 14/19/4 20/28/4 18/29/4
f 14/19/2 28/30/2 36/31/2 20/28/2
f 27/32/2 26/33/2 34/34/2 35/35/2
f 31/36/2 30/37/2 22/38/2 23/39/2
f 12/18/2 24/40/2 28/30/2 14/19/2
f 23/39/2 22/38/2 26/33/2 27/32/2
f 47/12/2 61/41/2 32/42/2 16/13/2
f 61/41/2 62/43/2 31/36/2 32/42/2
f 62/43/2 63/44/2 30/37/2 31/36/2
f 63/44/2 64/15/2 29/16/2 30/37/2
f 53/45/5 49/46/5 40/47/5 43/48/5
f 51/49/2 53/45/2 43/48/2 42/50/2
f 48/7/2 55/51/2 46/52/2 38/8/2
f 37/11/2 45/53/2 56/54/2 47/12/2
f 64/15/2 73/55/2 55/51/2 48/7/2
f 41/56/2 44/57/2 54/58/2 52/59/2
f 65/60/2 69/61/2 53/45/2 51/49/2
f 44/57/5 39/62/5 50/63/5 54/58/5
f 53/45/3 59/64/3 57/65/3 49/46/3
f 69/61/2 77/66/2 59/64/2 53/45/2
f 50/63/4 58/67/4 60/68/4 54/58/4
f 54/58/2 60/68/2 80/69/2 72/70/2
f 71/71/2 79/72/2 78/73/2 70/74/2
f 75/75/2 67/76/2 66/77/2 74/78/2
f 52/59/2 54/58/2 72/70/2 68/79/2
f 67/76/2 71/71/2 70/74/2 66/77/2
f 47/12/2 56/54/2 76/80/2 61/41/2
f 61/41/2 76/80/2 75/75/2 62/43/2
f 62/43/2 75/75/2 74/78/2 63/44/2
f 63/44/2 74/78/2 73/55/2 64/15/2
usemtl TrackWhileLine
f 15/10/2 8/9/2 4/6/2 11/5/2
f 7/14/2 16/13/2 12/18/2 3/17/2
f 29/16/2 15/10/2 11/5/2 21/21/2
f 28/30/2 27/32/2 35/35/2 36/31/2
f 26/33/2 25/22/2 33/27/2 34/34/2
f 16/13/2 32/42/2 24/40/2 12/18/2
f 32/42/2 31/36/2 23/39/2 24/40/2
f 30/37/2 29/16/2 21/21/2 22/38/2
f 24/40/2 23/39/2 27/32/2 28/30/2
f 22/38/2 21/21/2 25/22/2 26/33/2
f 55/51/2 51/49/2 42/50/2 46/52/2
f 45/53/2 41/56/2 52/59/2 56/54/2
f 73/55/2 65/60/2 51/49/2 55/51/2
f 72/70/2 80/69/2 79/72/2 71/71/2
f 70/74/2 78/73/2 77/66/2 69/61/2
f 56/54/2 52/59/2 68/79/2 76/80/2
f 76/80/2 68/79/2 67/76/2 75/75/2
f 74/78/2 66/77/2 65/60/2 73/55/2
f 68/79/2 72/70/2 71/71/2 67/76/2
f 66/77/2 70/74/2 69/61/2 65/60/2
