# Blender v2.82 (sub 7) OBJ File: 'Track.blend'
# www.blender.org
mtllib TrackCurve.mtl
o SimpleRoad.004_Plane.004
v -95.132309 -0.818825 -5.297512
v -95.132309 -0.818825 5.297511
v -96.444817 0.000000 -5.297512
v -96.444817 0.000000 5.297511
v -96.082649 0.000000 5.297511
v -96.082657 0.000000 -5.297512
v -96.684944 0.000000 -5.297512
v -96.684944 0.000000 5.297511
v -100.429817 0.000000 -5.297511
v -100.429817 0.000000 5.297511
v -105.727325 -0.818825 -5.297511
v -105.727325 -0.818825 5.297512
v -104.414818 0.000000 -5.297511
v -104.414818 0.000000 5.297512
v -104.776978 0.000000 5.297512
v -104.776985 0.000000 -5.297511
v -104.174690 0.000000 -5.297511
v -104.174690 0.000000 5.297512
v -94.431122 -0.818825 8.545860
v -95.664482 0.000000 8.994765
v -95.324158 0.000000 8.870897
v -95.890129 0.000000 9.076894
v -99.608307 0.216438 10.486385
v -104.917900 -1.206695 12.512468
v -103.749435 -0.157264 12.105493
v -104.089760 -0.204643 12.229361
v -103.523796 -0.118906 12.023363
v -92.661232 -0.818825 11.358490
v -93.666672 0.000000 12.202158
v -93.389236 0.000000 11.969361
v -93.850624 0.000000 12.356506
v -96.918510 0.216831 14.892336
v -101.308205 -1.206695 18.511736
v -100.367653 -0.157476 17.709999
v -100.645088 -0.204806 17.942795
v -100.183708 -0.119146 17.555649
v -90.036095 -0.818825 13.396159
v -90.692352 0.000000 14.532830
v -90.511269 0.000000 14.219183
v -90.812416 0.000000 14.740785
v -92.884003 0.214427 18.112610
v -95.864326 -1.206696 22.914618
v -95.272957 -0.156228 21.819878
v -95.454041 -0.203847 22.133522
v -95.152901 -0.117733 21.611919
v -86.872360 -0.818825 14.413093
v -87.100273 0.000000 15.705667
v -87.037384 0.000000 15.349002
v -87.141968 0.000000 15.942146
v -87.991409 0.208835 19.758797
v -89.242874 -1.206696 25.190056
v -89.079857 -0.153675 23.939409
v -89.142746 -0.201887 24.296074
v -89.038155 -0.114846 23.702930
v -83.551598 -0.818825 14.286636
v -83.323685 0.000000 15.579211
v -83.386574 0.000000 15.222546
v -83.281982 0.000000 15.815690
v -82.830841 0.199552 19.632338
v -82.242508 -1.206696 25.063597
v -82.535316 -0.150137 23.812954
v -82.472427 -0.199169 24.169617
v -82.577011 -0.110846 23.576473
v -80.474358 -0.818825 13.032040
v -79.818100 0.000000 14.168711
v -79.999191 0.000000 13.855064
v -79.698044 0.000000 14.376668
v -78.024750 0.186542 17.748493
v -75.707565 -1.206695 22.550497
v -76.428711 -0.146050 21.455761
v -76.247635 -0.196026 21.769407
v -76.548775 -0.106226 21.247801
v -78.011795 -0.818825 10.800628
v -77.006355 0.000000 11.644296
v -77.283791 0.000000 11.411499
v -76.822403 0.000000 11.798648
v -74.152817 0.170776 14.334476
v -70.426254 -1.206695 17.953876
v -71.496590 -0.141908 17.152140
v -71.219162 -0.192838 17.384937
v -71.680542 -0.101547 16.997786
v -76.460938 -0.818825 7.861540
v -75.227577 0.000000 8.310448
v -75.567902 0.000000 8.186578
v -75.001930 0.000000 8.392576
v -71.682053 0.154414 9.802069
v -67.035583 -1.206695 11.828153
v -68.333832 -0.138211 11.421174
v -67.993515 -0.189991 11.545045
v -68.559486 -0.097373 11.339044
v -76.008827 -0.818825 4.569275
v -74.696320 0.000000 4.569276
v -75.058479 0.000000 4.569275
v -74.456184 0.000000 4.569276
v -70.910461 0.140457 4.697948
v -65.944519 -1.206695 4.912178
v -67.321922 -0.135395 4.954105
v -66.959755 -0.187821 4.954108
v -67.562057 -0.094194 4.954103
v -76.008827 -0.818825 -5.430726
v -74.696320 0.000000 -5.430724
v -75.058479 0.000000 -5.430726
v -74.456184 0.000000 -5.430724
v -70.711319 0.000000 -5.430724
v -65.413803 -0.818825 -5.430723
v -66.726318 0.000000 -5.430723
v -66.364151 0.000000 -5.430720
v -66.966446 0.000000 -5.430725
vt 0.000000 0.750000
vt 1.000000 0.750000
vt 1.000000 1.000000
vt 0.000000 1.000000
vt 0.000000 0.500000
vt 1.000000 0.500000
vt 0.000000 0.000000
vt 1.000000 0.000000
vt 1.000000 0.250000
vt 0.000000 0.250000
vt 0.000000 0.750000
vt 0.000000 1.000000
vt 1.000000 1.000000
vt 1.000000 0.750000
vt 0.000000 0.500000
vt 1.000000 0.500000
vt 0.000000 0.250000
vt 1.000000 0.250000
vt 1.000000 0.500000
vt 1.000000 0.750000
vt 1.000000 1.000000
vt 1.000000 0.750000
vt 1.000000 0.250000
vt 1.000000 0.000000
vt 1.000000 0.500000
vt 1.000000 1.000000
vt 1.000000 0.250000
vt 1.000000 1.000000
vt 1.000000 0.750000
vt 1.000000 0.500000
vt 1.000000 0.750000
vt 1.000000 1.000000
vt 1.000000 0.250000
vt 1.000000 0.000000
vt 1.000000 0.250000
vt 1.000000 0.500000
vt 1.000000 0.250000
vt 1.000000 0.000000
vt 1.000000 0.250000
vt 1.000000 0.750000
vt 1.000000 0.500000
vt 1.000000 1.000000
vt 1.000000 0.500000
vt 1.000000 0.750000
vt 1.000000 1.000000
vt 1.000000 0.000000
vt 1.000000 0.250000
vt 1.000000 0.750000
vt 1.000000 0.500000
vt 1.000000 1.000000
vt 1.000000 0.500000
vt 1.000000 0.750000
vt 1.000000 1.000000
vt 1.000000 0.250000
vt 1.000000 0.750000
vt 1.000000 0.500000
vt 1.000000 1.000000
vt 1.000000 0.500000
vt 1.000000 0.750000
vt 1.000000 1.000000
vt 1.000000 0.250000
vt 1.000000 0.000000
vt 1.000000 0.250000
vt 1.000000 0.500000
vt 1.000000 0.750000
vt 1.000000 1.000000
vt 1.000000 0.250000
vt 1.000000 0.000000
vt 1.000000 0.250000
vt 1.000000 0.750000
vt 1.000000 0.500000
vt 1.000000 1.000000
vt 1.000000 0.250000
vt 1.000000 0.000000
vt 1.000000 0.250000
vt 1.000000 0.750000
vt 1.000000 0.500000
vt 1.000000 1.000000
vt 1.000000 0.500000
vt 1.000000 0.750000
vt 1.000000 1.000000
vt 1.000000 0.750000
vt 1.000000 0.500000
vt 1.000000 1.000000
vt 1.000000 0.500000
vt 1.000000 0.750000
vt 1.000000 1.000000
vt 1.000000 0.250000
vt 1.000000 0.000000
vt 1.000000 0.250000
vt 1.000000 0.750000
vt 1.000000 0.500000
vt 1.000000 1.000000
vt 1.000000 0.500000
vt 1.000000 0.750000
vt 1.000000 1.000000
vt 1.000000 0.250000
vt 1.000000 0.000000
vt 1.000000 0.250000
vt 1.000000 0.750000
vt 1.000000 1.000000
vt 1.000000 0.250000
vt 1.000000 0.000000
vt 1.000000 0.250000
vt 1.000000 0.750000
vt 1.000000 0.500000
vt 1.000000 1.000000
vt 1.000000 0.500000
vn 0.6527 0.7576 -0.0000
vn 0.0000 1.0000 0.0000
vn -0.6527 0.7576 0.0000
vn -0.7034 0.7032 0.1039
vn -0.0443 0.9990 -0.0027
vn -0.0616 0.9976 0.0323
vn 0.6441 0.7524 -0.1378
vn 0.0236 0.9993 -0.0284
vn -0.6505 0.6507 0.3918
vn 0.5581 0.7524 -0.3498
vn -0.0688 0.9968 0.0417
vn 0.0469 0.9985 -0.0289
vn -0.1127 0.9913 0.0680
vn -0.0503 0.9968 0.0629
vn 0.0344 0.9985 -0.0430
vn -0.0830 0.9913 0.1026
vn -0.4765 0.6522 0.5896
vn 0.4048 0.7524 -0.5196
vn 0.0178 0.9985 -0.0516
vn -0.0435 0.9911 0.1259
vn -0.2448 0.6571 0.7130
vn 0.2027 0.7524 -0.6267
vn -0.0257 0.9967 0.0764
vn 0.0021 0.9908 0.1351
vn 0.0137 0.6646 0.7470
vn -0.0239 0.7524 -0.6583
vn 0.0022 0.9968 0.0803
vn -0.0005 0.9986 -0.0534
vn -0.2476 0.7524 -0.6104
vn 0.0295 0.9968 0.0739
vn -0.0176 0.9987 -0.0484
vn 0.0490 0.9905 0.1285
vn 0.2654 0.6737 0.6897
vn 0.0521 0.9970 0.0580
vn -0.0310 0.9988 -0.0376
vn 0.0917 0.9901 0.1059
vn 0.4796 0.6831 0.5508
vn -0.4414 0.7524 -0.4889
vn 0.1245 0.9898 0.0693
vn 0.6320 0.6916 0.3496
vn -0.5820 0.7524 -0.3085
vn 0.0668 0.9971 0.0355
vn -0.0390 0.9990 -0.0231
vn 0.1428 0.9895 0.0227
vn 0.7069 0.6985 0.1113
vn -0.6524 0.7524 -0.0908
vn 0.0722 0.9973 0.0102
vn -0.0412 0.9991 -0.0076
vn 0.0331 0.9995 -0.0010
vn -0.0191 0.9998 -0.0072
vn 0.0722 0.9972 0.0197
vn 0.6825 0.7287 0.0573
vn -0.0772 0.9966 0.0278
vn -0.1370 0.9871 0.0828
vn -0.1008 0.9871 0.1247
vn -0.0526 0.9869 0.1525
vn 0.0026 0.9866 0.1630
vn 0.0588 0.9863 0.1542
vn 0.1094 0.9859 0.1264
vn 0.1479 0.9856 0.0823
vn 0.1688 0.9853 0.0269
vn 0.0855 0.9962 0.0159
usemtl TrackGround
s off
f 6/1/1 5/2/1 2/3/1 1/4/1
f 3/5/2 4/6/2 5/2/2 6/1/2
f 9/7/2 10/8/2 8/9/2 7/10/2
f 16/11/3 11/12/3 12/13/3 15/14/3
f 13/15/2 16/11/2 15/14/2 14/16/2
f 9/7/2 17/17/2 18/18/2 10/8/2
f 5/2/2 4/6/2 20/19/2 21/20/2
f 15/14/4 12/13/4 24/21/4 26/22/4
f 10/8/5 18/18/5 27/23/5 23/24/5
f 14/16/6 15/14/6 26/22/6 25/25/6
f 2/3/7 5/2/7 21/20/7 19/26/7
f 8/9/8 10/8/8 23/24/8 22/27/8
f 26/22/9 24/21/9 33/28/9 35/29/9
f 21/20/2 20/19/2 29/30/2 30/31/2
f 19/26/10 21/20/10 30/31/10 28/32/10
f 23/24/11 27/23/11 36/33/11 32/34/11
f 22/27/12 23/24/12 32/34/12 31/35/12
f 25/25/13 26/22/13 35/29/13 34/36/13
f 32/34/14 36/33/14 45/37/14 41/38/14
f 31/35/15 32/34/15 41/38/15 40/39/15
f 34/36/16 35/29/16 44/40/16 43/41/16
f 35/29/17 33/28/17 42/42/17 44/40/17
f 30/31/2 29/30/2 38/43/2 39/44/2
f 28/32/18 30/31/18 39/44/18 37/45/18
f 40/39/19 41/38/19 50/46/19 49/47/19
f 43/41/20 44/40/20 53/48/20 52/49/20
f 44/40/21 42/42/21 51/50/21 53/48/21
f 39/44/2 38/43/2 47/51/2 48/52/2
f 37/45/22 39/44/22 48/52/22 46/53/22
f 41/38/23 45/37/23 54/54/23 50/46/23
f 52/49/24 53/48/24 62/55/24 61/56/24
f 53/48/25 51/50/25 60/57/25 62/55/25
f 48/52/2 47/51/2 56/58/2 57/59/2
f 46/53/26 48/52/26 57/59/26 55/60/26
f 50/46/27 54/54/27 63/61/27 59/62/27
f 49/47/28 50/46/28 59/62/28 58/63/28
f 57/59/2 56/58/2 65/64/2 66/65/2
f 55/60/29 57/59/29 66/65/29 64/66/29
f 59/62/30 63/61/30 72/67/30 68/68/30
f 58/63/31 59/62/31 68/68/31 67/69/31
f 61/56/32 62/55/32 71/70/32 70/71/32
f 62/55/33 60/57/33 69/72/33 71/70/33
f 68/68/34 72/67/34 81/73/34 77/74/34
f 67/69/35 68/68/35 77/74/35 76/75/35
f 70/71/36 71/70/36 80/76/36 79/77/36
f 71/70/37 69/72/37 78/78/37 80/76/37
f 66/65/2 65/64/2 74/79/2 75/80/2
f 64/66/38 66/65/38 75/80/38 73/81/38
f 79/77/39 80/76/39 89/82/39 88/83/39
f 80/76/40 78/78/40 87/84/40 89/82/40
f 75/80/2 74/79/2 83/85/2 84/86/2
f 73/81/41 75/80/41 84/86/41 82/87/41
f 77/74/42 81/73/42 90/88/42 86/89/42
f 76/75/43 77/74/43 86/89/43 85/90/43
f 88/83/44 89/82/44 98/91/44 97/92/44
f 89/82/45 87/84/45 96/93/45 98/91/45
f 84/86/2 83/85/2 92/94/2 93/95/2
f 82/87/46 84/86/46 93/95/46 91/96/46
f 86/89/47 90/88/47 99/97/47 95/98/47
f 85/90/48 86/89/48 95/98/48 94/99/48
f 91/96/3 93/95/3 102/100/3 100/101/3
f 95/98/49 99/97/49 108/102/49 104/103/49
f 94/99/50 95/98/50 104/103/50 103/104/50
f 97/92/51 98/91/51 107/105/51 106/106/51
f 98/91/52 96/93/52 105/107/52 107/105/52
f 93/95/2 92/94/2 101/108/2 102/100/2
usemtl TrackWhileLine
f 7/10/2 8/9/2 4/6/2 3/5/2
f 17/17/2 13/15/2 14/16/2 18/18/2
f 4/6/2 8/9/2 22/27/2 20/19/2
f 18/18/53 14/16/53 25/25/53 27/23/53
f 27/23/54 25/25/54 34/36/54 36/33/54
f 20/19/2 22/27/2 31/35/2 29/30/2
f 36/33/55 34/36/55 43/41/55 45/37/55
f 29/30/2 31/35/2 40/39/2 38/43/2
f 38/43/2 40/39/2 49/47/2 47/51/2
f 45/37/56 43/41/56 52/49/56 54/54/56
f 54/54/57 52/49/57 61/56/57 63/61/57
f 47/51/2 49/47/2 58/63/2 56/58/2
f 63/61/58 61/56/58 70/71/58 72/67/58
f 56/58/2 58/63/2 67/69/2 65/64/2
f 72/67/59 70/71/59 79/77/59 81/73/59
f 65/64/2 67/69/2 76/75/2 74/79/2
f 74/79/2 76/75/2 85/90/2 83/85/2
f 81/73/60 79/77/60 88/83/60 90/88/60
f 90/88/61 88/83/61 97/92/61 99/97/61
f 83/85/2 85/90/2 94/99/2 92/94/2
f 99/97/62 97/92/62 106/106/62 108/102/62
f 92/94/2 94/99/2 103/104/2 101/108/2
