# Blender v2.82 (sub 7) OBJ File: 'Track.blend'
# www.blender.org
mtllib Track1.mtl
o Plane
v 5.297511 -0.818825 -5.297512
v 5.297512 -0.818825 5.297511
v 3.984998 0.000000 -5.297512
v 3.984999 0.000000 5.297511
v 4.347165 0.000000 5.297511
v 4.347164 0.000000 -5.297512
v 3.744871 0.000000 -5.297512
v 3.744872 0.000000 5.297511
v -0.000000 0.000000 -5.297511
v 0.000000 0.000000 5.297511
v -5.297512 -0.818825 -5.297511
v -5.297511 -0.818825 5.297512
v -3.984999 0.000000 -5.297511
v -3.984998 0.000000 5.297512
v -4.347164 0.000000 5.297512
v -4.347165 0.000000 -5.297511
v -3.744872 0.000000 -5.297511
v -3.744871 0.000000 5.297512
vt 0.000000 0.750000
vt 1.000000 0.750000
vt 1.000000 1.000000
vt 0.000000 1.000000
vt 0.000000 0.500000
vt 1.000000 0.500000
vt 0.000000 0.000000
vt 1.000000 0.000000
vt 1.000000 0.250000
vt 0.000000 0.250000
vt 0.000000 0.750000
vt 0.000000 1.000000
vt 1.000000 1.000000
vt 1.000000 0.750000
vt 0.000000 0.500000
vt 1.000000 0.500000
vt 0.000000 0.250000
vt 1.000000 0.250000
vn 0.6527 0.7576 -0.0000
vn 0.0000 1.0000 0.0000
vn -0.6527 0.7576 0.0000
usemtl TrackGround
s off
f 6/1/1 5/2/1 2/3/1 1/4/1
f 3/5/2 4/6/2 5/2/2 6/1/2
f 9/7/2 10/8/2 8/9/2 7/10/2
f 16/11/3 11/12/3 12/13/3 15/14/3
f 13/15/2 16/11/2 15/14/2 14/16/2
f 9/7/2 17/17/2 18/18/2 10/8/2
usemtl TrackWhileLine
f 7/10/2 8/9/2 4/6/2 3/5/2
f 17/17/2 13/15/2 14/16/2 18/18/2
