# Blender v2.82 (sub 7) OBJ File: 'GridMapStreet.blend'
# www.blender.org
mtllib Intersection.mtl
o Intersection_Cube
v 3.996485 0.073384 -4.000000
v 3.996485 0.073384 4.000000
v 3.168383 0.073384 4.000000
v 3.070473 0.073384 4.000000
v 3.070473 0.073384 -4.000000
v 3.168383 0.073384 -4.000000
v 3.996485 0.072040 -3.166926
v 3.996485 0.073384 -3.070586
v 3.168383 0.073384 -3.165515
v 3.168383 0.073384 -3.070586
v 3.070473 0.073384 -3.165515
v 3.070473 0.073384 -3.070586
v 3.996485 0.073384 3.080125
v 3.996485 0.073384 3.173558
v 3.168383 0.073384 3.080125
v 3.168383 0.073384 3.173558
v 3.070473 0.073384 3.080125
v 3.070473 0.073384 3.173558
v 3.996485 -0.452922 -4.000000
v 3.996485 -0.452922 4.000000
v 3.996485 0.063796 3.175238
v -3.996485 0.073384 -4.000000
v -3.996485 0.073384 4.000000
v 0.000000 0.073384 -4.000000
v -3.168383 0.073384 4.000000
v 0.000000 0.073384 4.000000
v -3.070473 0.073384 4.000000
v -3.070473 0.073384 -4.000000
v -3.168383 0.073384 -4.000000
v -3.996485 0.072040 -3.166926
v -3.996485 0.073384 -3.070586
v 0.000000 0.073384 -3.070586
v 0.000000 0.073384 -3.165515
v -3.168383 0.073384 -3.165515
v -3.168383 0.073384 -3.070586
v -3.070473 0.073384 -3.165515
v -3.070473 0.073384 -3.070586
v -3.996485 0.073384 3.080125
v -3.996485 0.073384 3.173558
v -3.168383 0.073384 3.080125
v -3.168383 0.073384 3.173558
v -3.070473 0.073384 3.080125
v -3.070473 0.073384 3.173558
v 0.000000 0.073384 3.173558
v 0.000000 0.073384 3.080125
v -3.996485 -0.452922 -4.000000
v -3.996485 -0.452922 4.000000
v -3.996485 0.063796 3.175238
vt 0.730907 0.733567
vt 0.875000 0.733567
vt 0.875000 0.750000
vt 0.730907 0.750000
vt 0.625000 0.733567
vt 0.647574 0.733567
vt 0.647574 0.750000
vt 0.625000 0.750000
vt 0.625000 0.500000
vt 0.647574 0.500000
vt 0.647574 0.526078
vt 0.625000 0.526078
vt 0.730907 0.500000
vt 0.875000 0.500000
vt 0.875000 0.526078
vt 0.730907 0.526078
vt 0.875000 0.609411
vt 0.730907 0.609411
vt 0.625000 0.609411
vt 0.647574 0.609411
vt 0.647574 0.686704
vt 0.625000 0.686704
vt 0.730907 0.686704
vt 0.875000 0.686704
vt 0.000000 0.000000
vt 0.000000 0.000000
vt 0.000000 0.000000
vt 0.730907 0.733567
vt 0.730907 0.750000
vt 0.625000 0.733567
vt 0.625000 0.750000
vt 0.647574 0.750000
vt 0.647574 0.733567
vt 0.625000 0.500000
vt 0.625000 0.526078
vt 0.647574 0.526078
vt 0.647574 0.500000
vt 0.730907 0.500000
vt 0.730907 0.526078
vt 0.730907 0.609411
vt 0.625000 0.609411
vt 0.625000 0.686704
vt 0.647574 0.686704
vt 0.647574 0.609411
vt 0.730907 0.686704
vt 0.000000 0.000000
vt 0.000000 0.000000
vt 0.000000 0.000000
vn 0.0000 1.0000 0.0000
vn 0.0008 1.0000 0.0008
vn 1.0000 0.0000 0.0000
vn 0.0000 0.0000 1.0000
vn 0.0000 0.0000 -1.0000
vn -0.0008 1.0000 0.0008
vn -1.0000 0.0000 0.0000
vn 0.0008 1.0000 -0.0070
vn -0.0008 1.0000 -0.0070
usemtl Street
s off
f 18/1/1 44/2/1 26/3/1 4/4/1
f 14/5/1 16/6/1 3/7/1 2/8/1
f 1/9/2 6/10/2 9/11/2 7/12/2
f 5/13/1 24/14/1 33/15/1 11/16/1
f 11/16/1 33/15/1 32/17/1 12/18/1
f 8/19/1 10/20/1 15/21/1 13/22/1
f 10/20/1 12/18/1 17/23/1 15/21/1
f 12/18/1 32/17/1 45/24/1 17/23/1
f 17/23/1 45/24/1 44/2/1 18/1/1
f 21/25/3 14/5/3 2/8/3 20/26/3
f 7/12/3 19/27/3 1/9/3
f 3/7/4 20/26/4 2/8/4
f 1/9/5 19/27/5 6/10/5
f 43/28/1 27/29/1 26/3/1 44/2/1
f 39/30/1 23/31/1 25/32/1 41/33/1
f 22/34/6 30/35/6 34/36/6 29/37/6
f 28/38/1 36/39/1 33/15/1 24/14/1
f 36/39/1 37/40/1 32/17/1 33/15/1
f 31/41/1 38/42/1 40/43/1 35/44/1
f 35/44/1 40/43/1 42/45/1 37/40/1
f 37/40/1 42/45/1 45/24/1 32/17/1
f 42/45/1 43/28/1 44/2/1 45/24/1
f 48/46/7 47/47/7 23/31/7 39/30/7
f 30/35/7 22/34/7 46/48/7
f 25/32/4 23/31/4 47/47/4
f 22/34/5 29/37/5 46/48/5
usemtl StreetLine
f 16/6/1 18/1/1 4/4/1 3/7/1
f 7/12/8 9/11/8 10/20/8 8/19/8
f 6/10/1 5/13/1 11/16/1 9/11/1
f 9/11/1 11/16/1 12/18/1 10/20/1
f 13/22/1 15/21/1 16/6/1 14/5/1
f 15/21/1 17/23/1 18/1/1 16/6/1
f 41/33/1 25/32/1 27/29/1 43/28/1
f 30/35/9 31/41/9 35/44/9 34/36/9
f 29/37/1 34/36/1 36/39/1 28/38/1
f 34/36/1 35/44/1 37/40/1 36/39/1
f 38/42/1 39/30/1 41/33/1 40/43/1
f 40/43/1 41/33/1 43/28/1 42/45/1
