# Blender v2.82 (sub 7) OBJ File: 'GridMapStreet.blend'
# www.blender.org
mtllib Parking.mtl
o Road-no-slope_Cube.002
v 4.000000 -0.078368 -4.000000
v 4.000000 -0.078368 4.000000
v 3.806775 -0.078429 -4.000000
v 3.806775 -0.078429 4.000000
v 4.000000 -0.078368 3.817566
v 4.000000 -0.078368 -3.816796
v 3.806775 0.074573 3.817566
v 3.806775 0.074573 -3.816796
v 3.806281 0.100759 -4.000000
v 3.999507 0.100820 -4.000000
v 3.806281 0.100759 4.000000
v 3.999507 0.100820 4.000000
v 3.999507 0.100820 -3.816796
v 3.806281 0.100759 -3.816796
v 3.999507 0.100820 3.817566
v 3.806281 0.100759 3.817566
v 3.903387 -0.078398 -4.000000
v 3.903387 -0.078398 4.000000
v 3.902894 0.100790 -4.000000
v 3.902894 0.100790 4.000000
v 3.902894 0.119554 -3.816796
v 3.902894 0.119554 3.817566
v 4.000000 -0.078368 3.908783
v 3.999507 0.100820 3.908783
v 3.806281 0.119524 3.908783
v 3.902894 0.100790 3.908783
v 4.000000 -0.059604 -3.908398
v 3.999507 0.119584 -3.908398
v 3.806281 0.119524 -3.908398
v 3.902894 0.119554 -3.908398
v 0.133820 -0.079576 -4.000000
v 0.133820 -0.079576 4.000000
v 0.133820 0.073426 -3.816796
v 0.133820 0.073426 3.817566
v 0.133802 0.099612 -4.000000
v 0.133802 0.099612 4.000000
v 0.133802 0.099612 -3.816796
v 0.133802 0.099612 3.817566
v 0.133802 0.118376 3.908783
v 0.133802 0.118376 -3.908398
v 4.000000 -0.078368 -0.108257
v 3.806775 0.074573 -0.108257
v 3.999507 0.100820 -0.108257
v 3.806281 0.100759 -0.108257
v 3.902894 0.119554 -0.108257
v 0.133820 0.073426 -0.108257
v 4.000000 -0.078368 0.035275
v 3.806775 0.074573 0.035275
v 3.999507 0.100820 0.035275
v 3.806281 0.100759 0.035275
v 3.902894 0.119554 0.035275
v 0.133820 0.073426 0.035275
v 0.133090 3.028591 0.035275
v 0.133090 3.028591 -0.108257
v 3.288929 3.350448 3.440672
v 3.288929 3.350448 -3.513654
v 3.413144 3.497833 3.703668
v 3.413144 3.497833 -3.776650
v -4.000000 -0.078368 -4.000000
v -4.000000 -0.078368 4.000000
v 0.000000 -0.079618 -4.000000
v 0.000000 -0.079618 4.000000
v -3.806775 -0.078429 -4.000000
v -3.806775 -0.078429 4.000000
v 0.000000 0.073384 3.817566
v 0.000000 0.073384 -3.816796
v -4.000000 -0.078368 3.817566
v -4.000000 -0.078368 -3.816796
v -3.806775 0.074573 3.817566
v -3.806775 0.074573 -3.816796
v -3.806281 0.100759 -4.000000
v -3.999507 0.100820 -4.000000
v -3.806281 0.100759 4.000000
v -3.999507 0.100820 4.000000
v 0.000000 0.099570 -3.816796
v 0.000000 0.099570 -4.000000
v -3.999507 0.100820 -3.816796
v 0.000000 0.099570 4.000000
v -3.806281 0.100759 -3.816796
v 0.000000 0.099570 3.817566
v -3.999507 0.100820 3.817566
v -3.806281 0.100759 3.817566
v -3.903387 -0.078398 -4.000000
v -3.903387 -0.078398 4.000000
v -3.902894 0.100790 -4.000000
v -3.902894 0.100790 4.000000
v -3.902894 0.119554 -3.816796
v -3.902894 0.119554 3.817566
v -4.000000 -0.078368 3.908783
v 0.000000 0.118334 3.908783
v -3.999507 0.100820 3.908783
v -3.806281 0.119524 3.908783
v -3.902894 0.100790 3.908783
v -4.000000 -0.059604 -3.908398
v 0.000000 0.118334 -3.908398
v -3.999507 0.119584 -3.908398
v -3.806281 0.119524 -3.908398
v -3.902894 0.119554 -3.908398
v -0.133820 -0.079576 -4.000000
v -0.133820 -0.079576 4.000000
v -0.133820 0.073426 -3.816796
v -0.133820 0.073426 3.817566
v -0.133802 0.099612 -4.000000
v -0.133802 0.099612 4.000000
v -0.133802 0.099612 -3.816796
v -0.133802 0.099612 3.817566
v -0.133802 0.118376 3.908783
v -0.133802 0.118376 -3.908398
v 0.000000 0.073384 -0.108257
v -4.000000 -0.078368 -0.108257
v -3.806775 0.074573 -0.108257
v -3.999507 0.100820 -0.108257
v -3.806281 0.100759 -0.108257
v -3.902894 0.119554 -0.108257
v -0.133820 0.073426 -0.108257
v 0.000000 0.073384 0.035275
v -4.000000 -0.078368 0.035275
v -3.806775 0.074573 0.035275
v -3.999507 0.100820 0.035275
v -3.806281 0.100759 0.035275
v -3.902894 0.119554 0.035275
v -0.133820 0.073426 0.035275
v 0.000000 3.028549 0.035275
v 0.000000 3.028549 -0.108257
v -0.133090 3.028591 0.035275
v -0.133090 3.028591 -0.108257
v 0.000000 3.348424 3.440672
v 0.000000 3.348424 -3.513654
v -3.288929 3.350448 3.440672
v -3.288929 3.350448 -3.513654
v 0.000000 3.495656 3.703668
v 0.000000 3.495656 -3.776650
v -3.413144 3.497833 3.703668
v -3.413144 3.497833 -3.776650
vt 0.000000 0.000000
vt 0.000000 0.000000
vt 0.000000 0.000000
vt 0.000000 0.000000
vt 0.000000 0.000000
vt 0.000000 0.000000
vt 0.000000 0.000000
vt 0.000000 0.000000
vt 0.000000 0.000000
vt 0.000000 0.000000
vt 0.000000 0.000000
vt 0.000000 0.000000
vt 0.000000 0.000000
vt 0.000000 0.000000
vt 0.000000 0.000000
vt 0.000000 0.000000
vt 0.000000 0.000000
vt 0.000000 0.000000
vt 0.000000 0.000000
vt 0.000000 0.000000
vt 0.000000 0.000000
vt 0.000000 0.000000
vt 0.000000 0.000000
vt 0.000000 0.000000
vt 0.000000 0.000000
vt 0.000000 0.000000
vt 0.000000 0.000000
vt 0.000000 0.000000
vt 0.000000 0.000000
vt 0.000000 0.000000
vt 0.000000 0.000000
vt 0.000000 0.000000
vt 0.000000 0.000000
vt 0.000000 0.000000
vt 0.000000 0.000000
vt 0.000000 0.000000
vt 0.000000 0.000000
vt 0.000000 0.000000
vt 0.000000 0.000000
vt 0.000000 0.000000
vt 0.000000 0.000000
vt 0.000000 0.000000
vt 0.000000 0.000000
vt 0.000000 0.000000
vt 0.000000 0.000000
vt 0.000000 0.000000
vt 0.000000 0.000000
vt 0.000000 0.000000
vt 0.000000 0.000000
vt 0.000000 0.000000
vt 0.000000 0.000000
vt 0.000000 0.000000
vt 0.000000 0.000000
vt 0.000000 0.000000
vt 0.000000 0.000000
vt 0.000000 0.000000
vt 0.000000 0.000000
vt 0.000000 0.000000
vt 0.000000 0.000000
vt 0.000000 0.000000
vt 0.000000 0.000000
vt 0.000000 0.000000
vt 0.000000 0.000000
vt 0.000000 0.000000
vt 0.000000 0.000000
vt 0.000000 0.000000
vt 0.000000 0.000000
vt 0.000000 0.000000
vt 0.000000 0.000000
vt 0.000000 0.000000
vt 0.000000 0.000000
vt 0.000000 0.000000
vt 0.000000 0.000000
vt 0.000000 0.000000
vt 0.000000 0.000000
vt 0.000000 0.000000
vt 0.000000 0.000000
vt 0.000000 0.000000
vt 0.000000 0.000000
vt 0.000000 0.000000
vt 0.000000 0.000000
vt 0.000000 0.000000
vt 0.000000 0.000000
vt 0.000000 0.000000
vt 0.000000 0.000000
vt 0.000000 0.000000
vt 0.000000 0.000000
vt 0.000000 0.000000
vt 0.000000 0.000000
vt 0.000000 0.000000
vt 0.000000 0.000000
vt 0.000000 0.000000
vt 0.000000 0.000000
vt 0.000000 0.000000
vt 0.000000 0.000000
vt 0.000000 0.000000
vt 0.000000 0.000000
vt 0.000000 0.000000
vt 0.000000 0.000000
vt 0.000000 0.000000
vt 0.000000 0.000000
vt 0.000000 0.000000
vt 0.000000 0.000000
vt 0.000000 0.000000
vt 0.000000 0.000000
vt 0.000000 0.000000
vt 0.000000 0.000000
vt 0.000000 0.000000
vt 0.000000 0.000000
vt 0.000000 0.000000
vt 0.000000 0.000000
vt 0.000000 0.000000
vt 0.000000 0.000000
vt 0.000000 0.000000
vt 0.000000 0.000000
vt 0.000000 0.000000
vt 0.000000 0.000000
vt 0.000000 0.000000
vt 0.000000 0.000000
vt 0.000000 0.000000
vt 0.000000 0.000000
vt 0.000000 0.000000
vt 0.000000 0.000000
vt 0.000000 0.000000
vt 0.000000 0.000000
vt 0.000000 0.000000
vt 0.000000 0.000000
vt 0.000000 0.000000
vt 0.000000 0.000000
vt 0.000000 0.000000
vt 0.000000 0.000000
vt 0.000000 0.000000
vt 0.000000 0.000000
vt 0.000000 0.000000
vn -0.0000 0.0000 1.0000
vn 1.0000 0.0028 0.0000
vn -0.9998 -0.0188 0.0000
vn -0.0003 1.0000 0.0000
vn 1.0000 0.0028 -0.0006
vn 0.0000 0.0000 -1.0000
vn 1.0000 0.0028 0.0006
vn -1.0000 0.0028 0.0000
vn 0.9998 -0.0188 0.0000
vn 0.0003 1.0000 0.0000
vn -1.0000 0.0028 -0.0006
vn -1.0000 0.0028 0.0006
vn -0.0003 0.9795 0.2015
vn -0.0003 0.9797 0.2007
vn 0.0959 0.9902 0.1014
vn 0.1904 0.9817 0.0000
vn -0.1910 0.9816 0.0000
vn -0.0965 0.9902 0.1014
vn 0.0958 0.9902 0.1018
vn -0.0003 0.9795 -0.2015
vn -0.0003 0.9797 -0.2007
vn 1.0000 0.0002 0.0000
vn 0.0003 0.9795 0.2015
vn 0.0003 0.9797 0.2007
vn -0.0959 0.9902 0.1014
vn -0.1904 0.9817 0.0000
vn 0.1910 0.9816 0.0000
vn 0.0965 0.9902 0.1014
vn -0.0958 0.9902 0.1018
vn 0.0003 0.9795 -0.2015
vn 0.0003 0.9797 -0.2007
vn -1.0000 0.0002 0.0000
vn 0.0006 -0.9956 0.0935
vn 0.0005 -0.8725 -0.4886
vn 0.1015 -0.9948 0.0000
vn 0.0006 -0.9956 -0.0935
vn -0.0006 1.0000 0.0000
vn 0.0005 -0.8725 0.4886
vn 0.7647 -0.6444 0.0000
vn -0.0006 -0.9956 0.0935
vn -0.0005 -0.8725 -0.4886
vn -0.1015 -0.9948 0.0000
vn -0.0006 -0.9956 -0.0935
vn 0.0006 1.0000 0.0000
vn -0.0005 -0.8725 0.4886
vn -0.7647 -0.6444 0.0000
usemtl Street.016
s off
f 33/1/1 8/2/1 14/3/1 37/4/1
f 23/5/2 5/6/2 15/7/2 24/8/2
f 48/9/3 7/10/3 16/11/3 50/12/3
f 52/13/4 34/14/4 7/10/4 48/9/4
f 32/15/1 4/16/1 11/17/1 36/18/1
f 18/19/1 2/20/1 12/21/1 20/22/1
f 27/23/5 1/24/5 10/25/5 28/26/5
f 41/27/2 6/28/2 13/29/2 43/30/2
f 17/31/6 3/32/6 9/33/6 19/34/6
f 34/14/6 65/35/6 80/36/6 38/37/6
f 31/38/6 61/39/6 76/40/6 35/41/6
f 1/24/6 17/31/6 19/34/6 10/25/6
f 4/16/1 18/19/1 20/22/1 11/17/1
f 2/20/2 23/5/2 24/8/2 12/21/2
f 6/28/7 27/23/7 28/26/7 13/29/7
f 3/32/6 31/38/6 35/41/6 9/33/6
f 7/10/6 34/14/6 38/37/6 16/11/6
f 62/42/1 32/15/1 36/18/1 78/43/1
f 116/44/4 65/35/4 34/14/4 52/13/4
f 66/45/1 33/1/1 37/4/1 75/46/1
f 66/45/4 109/47/4 46/48/4 33/1/4
f 47/49/2 41/27/2 43/30/2 49/50/2
f 33/1/4 46/48/4 42/51/4 8/2/4
f 8/2/3 42/51/3 44/52/3 14/3/3
f 5/6/2 47/49/2 49/50/2 15/7/2
f 46/48/4 52/13/4 48/9/4 42/51/4
f 42/51/3 48/9/3 50/12/3 44/52/3
f 101/53/1 105/54/1 79/55/1 70/56/1
f 89/57/8 91/58/8 81/59/8 67/60/8
f 118/61/9 120/62/9 82/63/9 69/64/9
f 122/65/10 118/61/10 69/64/10 102/66/10
f 100/67/1 104/68/1 73/69/1 64/70/1
f 84/71/1 86/72/1 74/73/1 60/74/1
f 94/75/11 96/76/11 72/77/11 59/78/11
f 110/79/8 112/80/8 77/81/8 68/82/8
f 83/83/6 85/84/6 71/85/6 63/86/6
f 102/66/6 106/87/6 80/36/6 65/35/6
f 99/88/6 103/89/6 76/40/6 61/39/6
f 59/78/6 72/77/6 85/84/6 83/83/6
f 64/70/1 73/69/1 86/72/1 84/71/1
f 60/74/8 74/73/8 91/58/8 89/57/8
f 68/82/12 77/81/12 96/76/12 94/75/12
f 63/86/6 71/85/6 103/89/6 99/88/6
f 69/64/6 82/63/6 106/87/6 102/66/6
f 62/42/1 78/43/1 104/68/1 100/67/1
f 116/44/10 122/65/10 102/66/10 65/35/10
f 66/45/1 75/46/1 105/54/1 101/53/1
f 66/45/10 101/53/10 115/90/10 109/47/10
f 117/91/8 119/92/8 112/80/8 110/79/8
f 101/53/10 70/56/10 111/93/10 115/90/10
f 70/56/9 79/55/9 113/94/9 111/93/9
f 67/60/8 81/59/8 119/92/8 117/91/8
f 115/90/10 111/93/10 118/61/10 122/65/10
f 111/93/9 113/94/9 120/62/9 118/61/9
usemtl StreetLine.016
f 26/95/4 20/22/4 12/21/4 24/8/4
f 39/96/13 36/18/13 11/17/13 25/97/13
f 40/98/14 37/4/14 14/3/14 29/99/14
f 30/100/15 21/101/15 13/29/15 28/26/15
f 51/102/16 22/103/16 15/7/16 49/50/16
f 50/12/17 16/11/17 22/103/17 51/102/17
f 29/99/18 14/3/18 21/101/18 30/100/18
f 25/97/19 11/17/19 20/22/19 26/95/19
f 16/11/4 25/97/4 26/95/4 22/103/4
f 38/37/20 39/96/20 25/97/20 16/11/20
f 22/103/19 26/95/19 24/8/19 15/7/19
f 9/33/21 29/99/21 30/100/21 19/34/21
f 19/34/21 30/100/21 28/26/21 10/25/21
f 35/41/21 40/98/21 29/99/21 9/33/21
f 76/40/21 95/104/21 40/98/21 35/41/21
f 80/36/20 90/105/20 39/96/20 38/37/20
f 95/104/14 75/46/14 37/4/14 40/98/14
f 90/105/13 78/43/13 36/18/13 39/96/13
f 14/3/17 44/52/17 45/106/17 21/101/17
f 21/101/16 45/106/16 43/30/16 13/29/16
f 46/48/6 109/47/6 124/107/6 54/108/6
f 44/52/17 50/12/17 51/102/17 45/106/17
f 45/106/16 51/102/16 49/50/16 43/30/16
f 116/44/1 52/13/1 53/109/1 123/110/1
f 52/13/22 46/48/22 54/108/22 53/109/22
f 93/111/10 91/58/10 74/73/10 86/72/10
f 107/112/23 92/113/23 73/69/23 104/68/23
f 108/114/24 97/115/24 79/55/24 105/54/24
f 98/116/25 96/76/25 77/81/25 87/117/25
f 121/118/26 119/92/26 81/59/26 88/119/26
f 120/62/27 121/118/27 88/119/27 82/63/27
f 97/115/28 98/116/28 87/117/28 79/55/28
f 92/113/29 93/111/29 86/72/29 73/69/29
f 82/63/10 88/119/10 93/111/10 92/113/10
f 106/87/30 82/63/30 92/113/30 107/112/30
f 88/119/29 81/59/29 91/58/29 93/111/29
f 71/85/31 85/84/31 98/116/31 97/115/31
f 85/84/31 72/77/31 96/76/31 98/116/31
f 103/89/31 71/85/31 97/115/31 108/114/31
f 76/40/31 103/89/31 108/114/31 95/104/31
f 80/36/30 106/87/30 107/112/30 90/105/30
f 95/104/24 108/114/24 105/54/24 75/46/24
f 90/105/23 107/112/23 104/68/23 78/43/23
f 79/55/27 87/117/27 114/120/27 113/94/27
f 87/117/26 77/81/26 112/80/26 114/120/26
f 115/90/6 126/121/6 124/107/6 109/47/6
f 113/94/27 114/120/27 121/118/27 120/62/27
f 114/120/26 112/80/26 119/92/26 121/118/26
f 116/44/1 123/110/1 125/122/1 122/65/1
f 122/65/32 125/122/32 126/121/32 115/90/32
usemtl Wall
f 123/110/33 53/109/33 55/123/33 127/124/33
f 56/125/34 128/126/34 132/127/34 58/128/34
f 53/109/35 54/108/35 56/125/35 55/123/35
f 54/108/36 124/107/36 128/126/36 56/125/36
f 132/127/37 131/129/37 57/130/37 58/128/37
f 127/124/38 55/123/38 57/130/38 131/129/38
f 55/123/39 56/125/39 58/128/39 57/130/39
f 123/110/40 127/124/40 129/131/40 125/122/40
f 130/132/41 134/133/41 132/127/41 128/126/41
f 125/122/42 129/131/42 130/132/42 126/121/42
f 126/121/43 130/132/43 128/126/43 124/107/43
f 132/127/44 134/133/44 133/134/44 131/129/44
f 127/124/45 131/129/45 133/134/45 129/131/45
f 129/131/46 133/134/46 134/133/46 130/132/46
