# Blender v2.82 (sub 7) OBJ File: 'GridMapStreet.blend'
# www.blender.org
mtllib Road-tunnel.mtl
o Road-tunnel_Cube.003
v 3.392537 0.073384 -4.000000
v 3.693555 0.116910 -3.577237
v 3.392537 0.073384 4.000000
v 4.000000 0.074634 4.000000
v 3.168383 0.073384 4.000000
v 3.070473 0.073384 4.000000
v 3.070473 0.073384 -4.000000
v 3.168383 0.073384 -4.000000
v 3.384309 4.073376 -4.000000
v 3.685501 4.032349 -3.577237
v 3.384309 4.073376 4.000000
v 3.991772 4.074625 4.000000
v 3.383567 4.434210 -4.000000
v 3.991030 4.435460 -4.000000
v 3.383567 4.434210 4.000000
v 3.991030 4.435460 4.000000
v 3.393496 -0.392519 -4.000000
v 4.000958 -0.391270 -4.000000
v 3.393496 -0.392519 4.000000
v 4.000958 -0.391270 4.000000
v 3.693555 0.116910 1.577237
v 3.693555 0.116910 0.422763
v 3.693555 0.116910 -2.422763
v 3.384309 4.073376 -2.000000
v 3.384309 4.073376 0.000000
v 3.384309 4.073376 2.000000
v 3.685501 4.032349 1.577237
v 3.685501 4.032349 0.422763
v 3.685501 4.032349 -2.422763
v 3.383567 4.434210 -2.000000
v 3.383567 4.434210 0.000000
v 3.383567 4.434210 2.000000
v 3.991030 4.435460 2.000000
v 3.991030 4.435460 0.000000
v 3.991030 4.435460 -2.000000
v 4.000958 -0.391270 2.000000
v 4.000958 -0.391270 0.000000
v 4.000958 -0.391270 -2.000000
v 4.000000 0.074634 -2.000000
v 4.000000 0.074634 -4.000000
v 3.991772 4.074625 -2.000000
v 3.991772 4.074625 -4.000000
v 4.000000 0.074634 2.000000
v 4.000000 0.074634 0.000000
v 3.991772 4.074625 2.000000
v 3.991772 4.074625 0.000000
v -3.392537 0.073384 -4.000000
v -3.693555 0.116910 -3.577237
v -3.392537 0.073384 4.000000
v -4.000000 0.074634 4.000000
v 0.000000 0.073384 -4.000000
v -3.168383 0.073384 4.000000
v 0.000000 0.073384 4.000000
v -3.070473 0.073384 4.000000
v -3.070473 0.073384 -4.000000
v -3.168383 0.073384 -4.000000
v -3.384309 4.073376 -4.000000
v -3.685501 4.032349 -3.577237
v -3.384309 4.073376 4.000000
v -3.991772 4.074625 4.000000
v -3.383567 4.434210 -4.000000
v -3.991030 4.435460 -4.000000
v -3.383567 4.434210 4.000000
v -3.991030 4.435460 4.000000
v 0.000000 4.667894 -4.000000
v 0.000000 4.667894 4.000000
v 0.000000 5.028728 -4.000000
v 0.000000 5.028728 4.000000
v -3.393496 -0.392519 -4.000000
v -4.000958 -0.391270 -4.000000
v -3.393496 -0.392519 4.000000
v -4.000958 -0.391270 4.000000
v -3.693555 0.116910 1.577237
v -3.693555 0.116910 0.422763
v -3.693555 0.116910 -2.422763
v -3.384309 4.073376 -2.000000
v -3.384309 4.073376 0.000000
v -3.384309 4.073376 2.000000
v -3.685501 4.032349 1.577237
v -3.685501 4.032349 0.422763
v -3.685501 4.032349 -2.422763
v -3.383567 4.434210 -2.000000
v -3.383567 4.434210 0.000000
v -3.383567 4.434210 2.000000
v -3.991030 4.435460 2.000000
v -3.991030 4.435460 0.000000
v -3.991030 4.435460 -2.000000
v 0.000000 4.667894 -2.000000
v 0.000000 4.667894 0.000000
v 0.000000 4.667894 2.000000
v 0.000000 5.028728 -2.000000
v 0.000000 5.028728 0.000000
v 0.000000 5.028728 2.000000
v -4.000958 -0.391270 2.000000
v -4.000958 -0.391270 0.000000
v -4.000958 -0.391270 -2.000000
v -4.000000 0.074634 -2.000000
v -4.000000 0.074634 -4.000000
v -3.991772 4.074625 -2.000000
v -3.991772 4.074625 -4.000000
v -4.000000 0.074634 2.000000
v -4.000000 0.074634 0.000000
v -3.991772 4.074625 2.000000
v -3.991772 4.074625 0.000000
vt 0.730907 0.500000
vt 0.875000 0.500000
vt 0.875000 0.750000
vt 0.730907 0.750000
vt 0.625000 0.500000
vt 0.647574 0.500000
vt 0.647574 0.750000
vt 0.625000 0.750000
vt 0.625000 0.500000
vt 0.625000 0.750000
vt 0.730907 0.500000
vt 0.730907 0.750000
vt 0.625000 0.500000
vt 0.625000 0.750000
vt 0.647574 0.750000
vt 0.647574 0.500000
vt 0.625000 0.687500
vt 0.625000 0.687500
vt 0.625000 0.750000
vt 0.625000 0.750000
vt 0.625000 0.750000
vt 0.625000 0.500000
vt 0.625000 0.500000
vt 0.625000 0.500000
vt 0.625000 0.562500
vt 0.625000 0.562500
vt 0.625000 0.625000
vt 0.625000 0.625000
vt 0.000000 0.000000
vt 0.000000 0.000000
vt 0.000000 0.000000
vt 0.000000 0.000000
vt 0.000000 0.000000
vt 0.000000 0.000000
vt 0.000000 0.000000
vt 0.000000 0.000000
vt 0.000000 0.000000
vt 0.000000 0.000000
vt 0.000000 0.000000
vt 0.625000 0.750000
vt 0.625000 0.687500
vt 0.625000 0.625000
vt 0.625000 0.562500
vt 0.625000 0.500000
vt 0.375000 0.687500
vt 0.625000 0.687500
vt 0.625000 0.750000
vt 0.375000 0.750000
vt 0.000000 0.000000
vt 0.625000 0.562500
vt 0.625000 0.500000
vt 0.000000 0.000000
vt 0.000000 0.000000
vt 0.000000 0.000000
vt 0.000000 0.000000
vt 0.000000 0.000000
vt 0.000000 0.000000
vt 0.000000 0.000000
vt 0.000000 0.000000
vt 0.000000 0.000000
vt 0.000000 0.000000
vt 0.000000 0.000000
vt 0.000000 0.000000
vt 0.625000 0.625000
vt 0.375000 0.500000
vt 0.375000 0.562500
vt 0.375000 0.625000
vt 0.000000 0.000000
vt 0.000000 0.000000
vt 0.000000 0.000000
vt 0.000000 0.000000
vt 0.000000 0.000000
vt 0.000000 0.000000
vt 0.000000 0.000000
vt 0.000000 0.000000
vt 0.000000 0.000000
vt 0.000000 0.000000
vt 0.000000 0.000000
vt 0.000000 0.000000
vt 0.000000 0.000000
vt 0.000000 0.000000
vt 0.000000 0.000000
vt 0.000000 0.000000
vt 0.000000 0.000000
vt 0.000000 0.000000
vt 0.000000 0.000000
vt 0.000000 0.000000
vt 0.000000 0.000000
vt 0.625000 0.500000
vt 0.625000 0.562500
vt 0.625000 0.625000
vt 0.625000 0.687500
vt 0.625000 0.750000
vt 0.375000 0.687500
vt 0.375000 0.750000
vt 0.625000 0.750000
vt 0.625000 0.687500
vt 0.000000 0.000000
vt 0.625000 0.562500
vt 0.625000 0.500000
vt 0.000000 0.000000
vt 0.000000 0.000000
vt 0.000000 0.000000
vt 0.000000 0.000000
vt 0.000000 0.000000
vt 0.000000 0.000000
vt 0.000000 0.000000
vt 0.000000 0.000000
vt 0.000000 0.000000
vt 0.000000 0.000000
vt 0.625000 0.625000
vt 0.375000 0.500000
vt 0.375000 0.562500
vt 0.375000 0.625000
vt 0.000000 0.000000
vt 0.000000 0.000000
vt 0.000000 0.000000
vt 0.000000 0.000000
vt 0.000000 0.000000
vt 0.000000 0.000000
vt 0.000000 0.000000
vt 0.000000 0.000000
vt 0.000000 0.000000
vt 0.000000 0.000000
vn 0.0000 1.0000 0.0000
vn -1.0000 -0.0021 0.0000
vn 1.0000 0.0000 0.0000
vn 1.0000 -0.0021 0.0000
vn 1.0000 0.0021 0.0000
vn -0.0000 0.0000 -1.0000
vn -0.0021 1.0000 0.0000
vn 0.1731 0.9849 0.0000
vn -0.1730 -0.9849 0.0000
vn 0.1367 0.9906 0.0000
vn 0.1367 -0.9906 0.0000
vn 0.8097 0.0017 0.5868
vn 0.8097 0.0017 -0.5868
vn -1.0000 0.0021 0.0000
vn 0.0021 1.0000 0.0000
vn -0.1731 0.9849 0.0000
vn 0.1730 -0.9849 0.0000
vn -0.1367 0.9906 0.0000
vn -0.1367 -0.9906 0.0000
vn -0.8097 0.0017 0.5868
vn -0.8097 0.0017 -0.5868
usemtl Street.017
s off
f 7/1/1 51/2/1 53/3/1 6/4/1
f 1/5/1 8/6/1 5/7/1 3/8/1
f 3/8/2 1/5/2 17/9/2 19/10/2
f 55/11/1 54/12/1 53/3/1 51/2/1
f 47/13/1 49/14/1 52/15/1 56/16/1
f 90/17/3 93/18/3 68/19/3 66/20/3
f 49/14/4 71/21/4 69/22/4 47/13/4
f 65/23/3 67/24/3 91/25/3 88/26/3
f 88/26/3 91/25/3 92/27/3 89/28/3
f 89/28/3 92/27/3 93/18/3 90/17/3
usemtl StreetLine.017
f 8/6/1 7/1/1 6/4/1 5/7/1
f 56/16/1 52/15/1 54/12/1 55/11/1
usemtl Wall
f 41/29/5 42/30/5 14/31/5 35/32/5
f 40/33/6 1/34/6 9/35/6 42/30/6
f 23/36/5 2/37/5 10/38/5 29/39/5
f 1/5/2 3/8/2 11/40/2 26/41/2 25/42/2 24/43/2 9/44/2
f 33/45/7 32/46/7 15/47/7 16/48/7
f 42/30/6 9/35/6 13/49/6 14/31/6
f 30/50/8 13/51/8 67/24/8 91/25/8
f 13/49/6 9/35/6 65/52/6 67/53/6
f 26/41/9 11/40/9 66/20/9 90/17/9
f 1/34/6 40/33/6 18/54/6 17/55/6
f 43/56/5 4/57/5 20/58/5 36/59/5
f 40/33/5 39/60/5 38/61/5 18/54/5
f 39/60/5 44/62/5 37/63/5 38/61/5
f 44/62/5 43/56/5 36/59/5 37/63/5
f 9/44/9 24/43/9 88/26/9 65/23/9
f 24/43/9 25/42/9 89/28/9 88/26/9
f 25/42/9 26/41/9 90/17/9 89/28/9
f 15/47/8 32/46/8 93/18/8 68/19/8
f 32/46/8 31/64/8 92/27/8 93/18/8
f 31/64/8 30/50/8 91/25/8 92/27/8
f 14/65/7 13/51/7 30/50/7 35/66/7
f 35/66/7 30/50/7 31/64/7 34/67/7
f 34/67/7 31/64/7 32/46/7 33/45/7
f 4/57/5 43/56/5 45/68/5 12/69/5
f 21/70/5 22/71/5 28/72/5 27/73/5
f 44/62/5 39/60/5 41/29/5 46/74/5
f 12/69/5 45/68/5 33/75/5 16/76/5
f 45/68/5 46/74/5 34/77/5 33/75/5
f 46/74/5 41/29/5 35/32/5 34/77/5
f 2/37/10 23/36/10 39/60/10 40/33/10
f 29/39/11 10/38/11 42/30/11 41/29/11
f 10/38/12 2/37/12 40/33/12 42/30/12
f 22/71/10 21/70/10 43/56/10 44/62/10
f 27/73/11 28/72/11 46/74/11 45/68/11
f 21/70/13 27/73/13 45/68/13 43/56/13
f 28/72/12 22/71/12 44/62/12 46/74/12
f 23/36/13 29/39/13 41/29/13 39/60/13
f 99/78/14 87/79/14 62/80/14 100/81/14
f 98/82/6 100/81/6 57/83/6 47/84/6
f 75/85/14 81/86/14 58/87/14 48/88/14
f 47/13/4 57/89/4 76/90/4 77/91/4 78/92/4 59/93/4 49/14/4
f 85/94/15 64/95/15 63/96/15 84/97/15
f 100/81/6 62/80/6 61/98/6 57/83/6
f 82/99/16 91/25/16 67/24/16 61/100/16
f 61/98/6 67/53/6 65/52/6 57/83/6
f 78/92/17 90/17/17 66/20/17 59/93/17
f 47/84/6 69/101/6 70/102/6 98/82/6
f 101/103/14 94/104/14 72/105/14 50/106/14
f 98/82/14 70/102/14 96/107/14 97/108/14
f 97/108/14 96/107/14 95/109/14 102/110/14
f 102/110/14 95/109/14 94/104/14 101/103/14
f 57/89/17 65/23/17 88/26/17 76/90/17
f 76/90/17 88/26/17 89/28/17 77/91/17
f 77/91/17 89/28/17 90/17/17 78/92/17
f 63/96/16 68/19/16 93/18/16 84/97/16
f 84/97/16 93/18/16 92/27/16 83/111/16
f 83/111/16 92/27/16 91/25/16 82/99/16
f 62/112/15 87/113/15 82/99/15 61/100/15
f 87/113/15 86/114/15 83/111/15 82/99/15
f 86/114/15 85/94/15 84/97/15 83/111/15
f 50/106/14 60/115/14 103/116/14 101/103/14
f 73/117/14 79/118/14 80/119/14 74/120/14
f 102/110/14 104/121/14 99/78/14 97/108/14
f 60/115/14 64/122/14 85/123/14 103/116/14
f 103/116/14 85/123/14 86/124/14 104/121/14
f 104/121/14 86/124/14 87/79/14 99/78/14
f 48/88/18 98/82/18 97/108/18 75/85/18
f 81/86/19 99/78/19 100/81/19 58/87/19
f 58/87/20 100/81/20 98/82/20 48/88/20
f 74/120/18 102/110/18 101/103/18 73/117/18
f 79/118/19 103/116/19 104/121/19 80/119/19
f 73/117/21 101/103/21 103/116/21 79/118/21
f 80/119/20 104/121/20 102/110/20 74/120/20
f 75/85/21 97/108/21 99/78/21 81/86/21
