# Blender v2.82 (sub 7) OBJ File: 'GridMapStreet.blend'
# www.blender.org
mtllib RoadBottom.mtl
o RoadBottom_Cube.005
v 3.392537 7.127095 4.000000
v 4.000000 7.600479 4.000000
v 3.392537 7.127097 -4.000000
v 4.000000 7.600482 -4.000000
v 3.168383 7.127097 -4.000000
v 3.168383 7.127095 4.000000
v -3.392537 7.127095 4.000000
v -4.000000 7.600479 4.000000
v -3.392537 7.127097 -4.000000
v -4.000000 7.600482 -4.000000
v -3.168383 7.127097 -4.000000
v -3.168383 7.127095 4.000000
v 0.000000 7.127097 -4.000000
v 0.000000 7.127095 4.000000
vt 0.375000 0.500000
vt 0.625000 0.500000
vt 0.625000 0.750000
vt 0.375000 0.750000
vt 0.647574 0.500000
vt 0.647574 0.750000
vt 0.718170 0.500000
vt 0.718170 0.750000
vt 0.375000 0.500000
vt 0.375000 0.750000
vt 0.625000 0.750000
vt 0.625000 0.500000
vt 0.647574 0.750000
vt 0.647574 0.500000
vn 0.6147 -0.7888 -0.0000
vn 0.0000 -1.0000 -0.0000
vn -0.6147 -0.7888 -0.0000
usemtl Street.019
s off
f 2/1/1 1/2/1 3/3/1 4/4/1
f 1/2/2 6/5/2 5/6/2 3/3/2
f 6/5/2 14/7/2 13/8/2 5/6/2
f 8/9/3 10/10/3 9/11/3 7/12/3
f 7/12/2 9/11/2 11/13/2 12/14/2
f 12/14/2 11/13/2 13/8/2 14/7/2
