# Blender v2.82 (sub 7) OBJ File: 'GridMapStreet.blend'
# www.blender.org
mtllib Slope1.mtl
o Slope1_Cube.011
v 4.000000 1.073384 3.392537
v 4.000000 1.600000 4.000000
v -4.000000 3.073384 3.392537
v -4.000000 3.600000 4.000000
v -4.000000 2.073384 3.168383
v -4.000000 2.073384 3.070473
v 4.000000 0.073384 3.070473
v 4.000000 0.073384 3.168382
v -4.000000 -0.400000 4.000000
v 4.000000 -0.400000 4.000000
v 4.000000 1.073384 -3.392537
v 4.000000 1.600000 -4.000000
v -4.000000 3.073384 -3.392537
v -4.000000 3.600000 -4.000000
v 4.000000 0.073384 -0.000000
v -4.000000 2.073384 -3.168382
v -4.000000 2.073384 0.000000
v -4.000000 2.073384 -3.070473
v 4.000000 0.073384 -3.070473
v 4.000000 0.073384 -3.168383
v -4.000000 -0.400000 -3.999999
v 4.000000 -0.400000 -4.000000
vt 0.730907 0.500000
vt 0.875000 0.500000
vt 0.875000 0.750000
vt 0.730907 0.750000
vt 0.375000 0.500000
vt 0.625000 0.500000
vt 0.625000 0.750000
vt 0.375000 0.750000
vt 0.647574 0.500000
vt 0.647574 0.750000
vt 0.000000 0.000000
vt 0.730907 0.500000
vt 0.730907 0.750000
vt 0.375000 0.500000
vt 0.375000 0.750000
vt 0.625000 0.750000
vt 0.625000 0.500000
vt 0.647574 0.750000
vt 0.647574 0.500000
vt 0.000000 0.000000
vt 0.000000 0.000000
vt 0.000000 0.000000
vn 0.2425 0.9701 -0.0000
vn 0.1856 0.7425 -0.6437
vn 0.0546 0.2184 -0.9743
vn 1.0000 0.0000 0.0000
vn 0.1856 0.7425 0.6437
vn 0.0546 0.2184 0.9743
vn 0.0000 -0.0000 1.0000
vn -0.0000 -0.0000 -1.0000
usemtl Street.011
s off
f 7/1/1 15/2/1 17/3/1 6/4/1
f 2/5/2 1/6/2 3/7/2 4/8/2
f 1/6/3 8/9/3 5/10/3 3/7/3
f 2/5/4 10/11/4 8/9/4 1/6/4
f 19/12/1 18/13/1 17/3/1 15/2/1
f 12/14/5 14/15/5 13/16/5 11/17/5
f 11/17/6 13/16/6 16/18/6 20/19/6
f 12/14/4 11/17/4 20/19/4 22/20/4
usemtl StreetLine.011
f 8/9/1 7/1/1 6/4/1 5/10/1
f 20/19/1 16/18/1 18/13/1 19/12/1
usemtl Wall
f 2/5/7 4/8/7 9/21/7 10/11/7
f 12/14/8 22/20/8 21/22/8 14/15/8
