# Blender v2.82 (sub 7) OBJ File: 'GridMapStreet.blend'
# www.blender.org
mtllib Slope4.mtl
o Slope4_Cube.015
v 4.000000 6.073384 3.392537
v 4.000000 6.600000 4.000000
v -4.000000 8.073384 3.392537
v -4.000000 8.600000 4.000000
v -4.000000 8.073384 3.168383
v -4.000000 8.073384 3.070473
v 4.000000 6.073384 3.070473
v 4.000000 6.073384 3.168382
v 4.000000 -0.400001 4.000000
v -4.000000 -0.400001 4.000000
v 4.000000 6.086495 4.000000
v 4.000000 1.000000 4.000000
v -4.000000 6.084333 4.000000
v -4.000000 0.987025 4.000000
v 4.000000 5.187050 1.000000
v -4.000000 5.182975 1.000000
v 4.000000 1.412893 1.000000
v -4.000000 1.400796 1.000000
v -4.000000 -0.400001 1.000000
v 4.000000 6.073384 -3.392537
v 4.000000 6.600000 -4.000000
v -4.000000 8.073384 -3.392537
v -4.000000 8.600000 -4.000000
v 4.000000 6.073384 -0.000000
v -4.000000 8.073384 -3.168382
v -4.000000 8.073384 0.000000
v -4.000000 8.073384 -3.070473
v 4.000000 6.073384 -3.070473
v 4.000000 6.073384 -3.168383
v 4.000000 -0.400001 -4.000000
v -4.000000 -0.400001 -3.999999
v 4.000000 6.086495 -4.000000
v 4.000000 1.000000 -4.000000
v -4.000000 6.084333 -4.000000
v -4.000000 0.987025 -3.999999
v 4.000000 5.187050 -1.000000
v -4.000000 5.182975 -0.999999
v 4.000000 1.412893 -1.000000
v -4.000000 1.400796 -0.999999
v -4.000000 5.182975 0.000000
v -4.000000 1.400796 0.000000
v -4.000000 -0.400001 -0.999999
v -4.000000 -0.599204 0.000000
vt 0.730907 0.500000
vt 0.875000 0.500000
vt 0.875000 0.750000
vt 0.730907 0.750000
vt 0.375000 0.500000
vt 0.625000 0.500000
vt 0.625000 0.750000
vt 0.375000 0.750000
vt 0.647574 0.500000
vt 0.647574 0.750000
vt 0.730907 0.500000
vt 0.730907 0.750000
vt 0.375000 0.500000
vt 0.375000 0.750000
vt 0.625000 0.750000
vt 0.625000 0.500000
vt 0.647574 0.750000
vt 0.647574 0.500000
vt 0.200000 0.400000
vt 0.200000 0.266667
vt 0.000000 0.000000
vt 0.000000 0.000000
vt 0.075000 0.100000
vt 0.075000 0.150000
vt 0.177896 0.355792
vt 0.177896 0.237195
vt 0.085147 0.170294
vt 0.085147 0.113529
vt 0.177896 0.355792
vt 0.085147 0.170294
vt 0.000000 0.000000
vt 0.000000 0.000000
vt 0.200000 0.400000
vt 0.200000 0.266667
vt 0.000000 0.000000
vt 0.075000 0.150000
vt 0.075000 0.100000
vt 0.000000 0.000000
vt 0.177896 0.355792
vt 0.177896 0.237195
vt 0.085147 0.170294
vt 0.085147 0.113529
vt 0.000000 0.000000
vn 0.2425 0.9701 -0.0000
vn 0.1856 0.7425 -0.6437
vn 0.1856 0.7425 0.6437
vn 0.0000 -0.0000 1.0000
vn 0.0004 -0.9578 0.2875
vn -0.0016 0.9906 0.1365
vn -1.0000 0.0000 0.0000
vn -0.0000 -0.0000 -1.0000
vn 0.0004 -0.9578 -0.2875
vn -0.0016 0.9906 -0.1365
usemtl Street.015
s off
f 7/1/1 24/2/1 26/3/1 6/4/1
f 2/5/2 1/6/2 3/7/2 4/8/2
f 1/6/1 8/9/1 5/10/1 3/7/1
f 28/11/1 27/12/1 26/3/1 24/2/1
f 21/13/3 23/14/3 22/15/3 20/16/3
f 20/16/1 22/15/1 25/17/1 29/18/1
usemtl StreetLine.015
f 8/9/1 7/1/1 6/4/1 5/10/1
f 29/18/1 25/17/1 27/12/1 28/11/1
usemtl Wall
f 13/19/4 11/20/4 2/5/4 4/8/4
f 10/21/4 9/22/4 12/23/4 14/24/4
f 16/25/5 15/26/5 11/20/5 13/19/5
f 18/27/4 17/28/4 15/26/4 16/25/4
f 14/24/6 12/23/6 17/28/6 18/27/6
f 17/28/7 12/23/7 11/20/7 15/26/7
f 18/27/7 16/25/7 40/29/7 41/30/7
f 10/21/7 14/24/7 18/27/7 19/31/7
f 43/32/7 19/31/7 18/27/7 41/30/7
f 26/3/7 40/29/7 16/25/7 6/4/7
f 16/25/7 13/19/7 6/4/7
f 6/4/7 13/19/7 4/8/7 3/7/7 5/10/7
f 34/33/8 23/14/8 21/13/8 32/34/8
f 31/35/8 35/36/8 33/37/8 30/38/8
f 37/39/9 34/33/9 32/34/9 36/40/9
f 39/41/8 37/39/8 36/40/8 38/42/8
f 35/36/10 39/41/10 38/42/10 33/37/10
f 38/42/7 36/40/7 32/34/7 33/37/7
f 39/41/7 41/30/7 40/29/7 37/39/7
f 31/35/7 42/43/7 39/41/7 35/36/7
f 43/32/7 41/30/7 39/41/7 42/43/7
f 26/3/7 27/12/7 37/39/7 40/29/7
f 37/39/7 27/12/7 34/33/7
f 27/12/7 25/17/7 22/15/7 23/14/7 34/33/7
